<?xml version="1.0" encoding="UTF-8"?>
<svg xmlns="http://www.w3.org/2000/svg" xmlns:xlink="http://www.w3.org/1999/xlink" width="20px" height="12px" viewBox="0 0 20 12" version="1.1">
<g id="surface1">
<path style=" stroke:none;fill-rule:nonzero;fill:rgb(0%,0%,0%);fill-opacity:1;" d="M 5.195312 0.972656 C 5.007812 1.019531 4.796875 1.144531 4.648438 1.304688 C 4.472656 1.488281 4.382812 1.652344 4.324219 1.886719 C 4.277344 2.0625 4.277344 2.148438 4.277344 4.132812 C 4.277344 6.375 4.277344 6.355469 4.402344 6.617188 C 4.570312 6.964844 4.882812 7.226562 5.234375 7.304688 C 5.339844 7.324219 5.539062 7.339844 5.878906 7.339844 L 6.378906 7.339844 L 6.378906 8.035156 C 6.378906 8.824219 6.378906 8.847656 6.523438 8.972656 C 6.621094 9.058594 6.699219 9.082031 6.828125 9.058594 C 6.921875 9.046875 6.980469 8.988281 7.742188 8.191406 L 8.554688 7.339844 L 10.449219 7.339844 C 12.257812 7.339844 12.351562 7.332031 12.511719 7.285156 C 12.746094 7.226562 12.890625 7.136719 13.074219 6.949219 C 13.234375 6.777344 13.347656 6.582031 13.40625 6.363281 C 13.425781 6.273438 13.429688 5.777344 13.429688 4.125 L 13.429688 2.003906 L 13.386719 1.839844 C 13.253906 1.417969 12.917969 1.085938 12.511719 0.972656 C 12.394531 0.945312 11.914062 0.9375 8.847656 0.9375 C 6.066406 0.945312 5.292969 0.945312 5.195312 0.972656 Z M 5.195312 0.972656 "/>
<path style=" stroke:none;fill-rule:nonzero;fill:rgb(0%,0%,0%);fill-opacity:1;" d="M 14.050781 5.230469 C 14.050781 5.800781 14.035156 6.261719 14.023438 6.347656 C 13.917969 7.03125 13.464844 7.613281 12.859375 7.847656 C 12.558594 7.96875 12.546875 7.96875 10.625 7.96875 L 8.828125 7.96875 L 8.097656 8.730469 L 8.15625 8.894531 C 8.222656 9.085938 8.289062 9.195312 8.449219 9.347656 C 8.59375 9.503906 8.800781 9.601562 9.003906 9.628906 C 9.09375 9.644531 9.765625 9.65625 10.636719 9.65625 L 12.117188 9.65625 L 12.714844 10.292969 C 13.046875 10.640625 13.367188 10.957031 13.417969 10.996094 C 13.605469 11.121094 13.839844 11.0625 13.953125 10.863281 C 13.996094 10.773438 14.003906 10.746094 14.003906 10.21875 L 14.003906 9.664062 L 14.433594 9.648438 C 14.796875 9.644531 14.882812 9.628906 14.992188 9.589844 C 15.253906 9.488281 15.488281 9.28125 15.605469 9.039062 C 15.714844 8.800781 15.722656 8.746094 15.722656 6.957031 C 15.722656 5.933594 15.714844 5.257812 15.703125 5.175781 C 15.636719 4.839844 15.421875 4.539062 15.128906 4.394531 C 14.929688 4.285156 14.804688 4.265625 14.386719 4.265625 L 14.050781 4.265625 Z M 14.050781 5.230469 "/>
</g>
</svg>
