<?xml version="1.0" encoding="UTF-8"?>
<svg xmlns="http://www.w3.org/2000/svg" xmlns:xlink="http://www.w3.org/1999/xlink" width="14px" height="14px" viewBox="0 0 14 14" version="1.1">
<g id="surface1">
<path style=" stroke:none;fill-rule:nonzero;fill:rgb(0%,0%,0%);fill-opacity:1;" d="M 5.957031 2.910156 C 4.003906 3.210938 2.050781 4.359375 0.601562 6.066406 C 0.269531 6.453125 0 6.859375 0 6.96875 C 0 7.246094 1.085938 8.503906 1.910156 9.191406 C 2.75 9.878906 4.25 10.660156 5.261719 10.917969 C 6.171875 11.144531 7.785156 11.144531 8.695312 10.917969 C 9.695312 10.660156 11.207031 9.878906 12.035156 9.199219 C 12.871094 8.503906 13.957031 7.257812 13.957031 6.988281 C 13.957031 6.710938 12.871094 5.453125 12.046875 4.765625 C 11.242188 4.101562 9.707031 3.296875 8.792969 3.070312 C 7.964844 2.867188 6.722656 2.792969 5.957031 2.910156 Z M 8.160156 4.316406 C 10.480469 5.304688 10.457031 8.664062 8.117188 9.671875 C 5.742188 10.703125 3.242188 8.203125 4.292969 5.839844 C 4.972656 4.292969 6.613281 3.648438 8.160156 4.316406 Z M 8.160156 4.316406 "/>
<path style=" stroke:none;fill-rule:nonzero;fill:rgb(0%,0%,0%);fill-opacity:1;" d="M 6.507812 5.476562 C 5.410156 5.808594 5.058594 7.289062 5.882812 8.085938 C 6.753906 8.910156 8.105469 8.546875 8.472656 7.386719 C 8.730469 6.601562 8.222656 5.710938 7.398438 5.476562 C 6.980469 5.355469 6.925781 5.355469 6.507812 5.476562 Z M 6.507812 5.476562 "/>
</g>
</svg>
