<svg xmlns="http://www.w3.org/2000/svg" width="150" height="44" viewBox="0 0 150 44">
  <g fill="none" fill-rule="evenodd">
    <g>
      <g>
        <g transform="translate(-250 -677) translate(250 641) translate(0 36)">
          <rect width="150" height="44" fill="#000" rx="5.28"></rect>
          <g fill="#FFF">
            <g>
              <path
                d="M16.927 13.246c-.029-3.146 2.576-4.677 2.695-4.748-1.474-2.152-3.762-2.446-4.565-2.469-1.92-.201-3.783 1.15-4.762 1.15-.998 0-2.505-1.13-4.128-1.097-2.09.033-4.044 1.242-5.117 3.12-2.212 3.83-.562 9.46 1.557 12.556 1.06 1.516 2.3 3.21 3.921 3.15 1.587-.066 2.18-1.013 4.095-1.013 1.897 0 2.454 1.012 4.108.974 1.702-.027 2.775-1.523 3.798-3.053 1.225-1.738 1.718-3.45 1.736-3.537-.038-.014-3.306-1.26-3.338-5.033M13.802 3.993c.853-1.068 1.436-2.519 1.275-3.993-1.236.054-2.78.854-3.67 1.899-.787.92-1.49 2.427-1.308 3.844 1.387.103 2.813-.7 3.703-1.75"
                transform="translate(10.57 8.632)"></path>
            </g>
            <g>
              <path
                d="M3.995 18.87h4.127l-2.035-5.992H6.03l-2.035 5.991zm4.667 1.703H3.455l-1.25 3.692H0l4.931-13.66h2.292l4.932 13.66H9.911l-1.248-3.692zM20.704 19.286c0-2.016-1.041-3.342-2.632-3.342-1.561 0-2.611 1.353-2.611 3.342 0 2.007 1.05 3.35 2.61 3.35 1.591 0 2.633-1.316 2.633-3.35zm2.101 0c0 3.095-1.656 5.083-4.156 5.083-1.419 0-2.546-.634-3.134-1.742h-.047v4.932h-2.044V14.305h1.98v1.657h.037c.567-1.068 1.78-1.76 3.171-1.76 2.528 0 4.193 1.998 4.193 5.084zM31.666 19.286c0-2.016-1.042-3.342-2.633-3.342-1.562 0-2.612 1.353-2.612 3.342 0 2.007 1.05 3.35 2.612 3.35 1.591 0 2.633-1.316 2.633-3.35zm2.1 0c0 3.095-1.656 5.083-4.155 5.083-1.42 0-2.547-.634-3.134-1.742h-.047v4.932h-2.044V14.305h1.979v1.657h.037c.568-1.068 1.78-1.76 3.171-1.76 2.527 0 4.194 1.998 4.194 5.084zM41.011 20.459c.151 1.355 1.468 2.244 3.265 2.244 1.724 0 2.963-.889 2.963-2.111 0-1.06-.747-1.695-2.518-2.13l-1.77-.426c-2.508-.607-3.673-1.78-3.673-3.683 0-2.356 2.055-3.976 4.97-3.976 2.887 0 4.866 1.62 4.932 3.976h-2.064c-.123-1.363-1.25-2.186-2.896-2.186-1.648 0-2.774.833-2.774 2.044 0 .966.72 1.534 2.48 1.97l1.505.368c2.803.664 3.967 1.79 3.967 3.788 0 2.555-2.035 4.156-5.273 4.156-3.029 0-5.075-1.563-5.207-4.034h2.093M53.81 11.95v2.356h1.895v1.619h-1.894v5.49c0 .853.38 1.25 1.212 1.25.208 0 .54-.028.672-.047v1.61c-.226.057-.68.094-1.135.094-2.016 0-2.803-.758-2.803-2.688v-5.71H50.31v-1.618h1.447v-2.357h2.054M64.165 19.286c0-2.15-.984-3.419-2.64-3.419-1.657 0-2.642 1.279-2.642 3.42 0 2.158.984 3.416 2.641 3.416s2.641-1.258 2.641-3.417zm-7.364 0c0-3.134 1.846-5.103 4.723-5.103 2.888 0 4.725 1.97 4.725 5.103 0 3.142-1.828 5.102-4.725 5.102-2.896 0-4.723-1.96-4.723-5.102zM67.934 14.306h1.949V16h.048c.313-1.127 1.221-1.799 2.395-1.799.294 0 .54.039.7.076v1.912c-.16-.066-.52-.123-.918-.123-1.315 0-2.13.89-2.13 2.29v5.908h-2.044v-9.96M75.541 18.368h4.979c-.047-1.525-1.022-2.528-2.442-2.528-1.41 0-2.432 1.023-2.537 2.528zm6.91 2.972c-.274 1.808-2.034 3.048-4.287 3.048-2.898 0-4.696-1.94-4.696-5.054 0-3.124 1.808-5.15 4.61-5.15 2.755 0 4.488 1.893 4.488 4.912v.7h-7.035v.124c0 1.704 1.07 2.82 2.68 2.82 1.135 0 2.026-.539 2.3-1.4h1.94zM2.388 5.959h1.238c1.372 0 2.163-.855 2.163-2.36 0-1.484-.804-2.348-2.163-2.348H2.388v4.708zM3.738.323c1.948 0 3.09 1.196 3.09 3.262 0 2.096-1.133 3.302-3.09 3.302h-2.37V.323h2.37zM11.646 4.408c0-1.074-.483-1.7-1.33-1.7-.85 0-1.327.626-1.327 1.7 0 1.082.478 1.706 1.328 1.706.846 0 1.329-.628 1.329-1.706zm-3.667 0c0-1.596.891-2.57 2.338-2.57 1.442 0 2.334.974 2.334 2.57 0 1.606-.888 2.575-2.334 2.575-1.451 0-2.338-.97-2.338-2.575zM18.861 6.887L17.846 6.887 16.823 3.238 16.745 3.238 15.727 6.887 14.722 6.887 13.356 1.934 14.348 1.934 15.235 5.713 15.309 5.713 16.327 1.934 17.265 1.934 18.283 5.713 18.36 5.713 19.243 1.934 20.221 1.934 18.861 6.887M21.37 1.934h.94v.786h.073c.24-.55.732-.882 1.478-.882 1.106 0 1.715.663 1.715 1.843v3.206h-.978V3.926c0-.796-.345-1.193-1.069-1.193-.723 0-1.183.483-1.183 1.256v2.898h-.976V1.934M27.134 6.887L28.112 6.887 28.112 0 27.134 0zM33.136 4.408c0-1.074-.483-1.7-1.328-1.7-.85 0-1.328.626-1.328 1.7 0 1.082.477 1.706 1.328 1.706.846 0 1.328-.628 1.328-1.706zm-3.666 0c0-1.596.891-2.57 2.338-2.57 1.442 0 2.334.974 2.334 2.57 0 1.606-.888 2.575-2.334 2.575-1.451 0-2.338-.97-2.338-2.575zM38.355 5.063V4.65l-1.21.077c-.681.046-.99.278-.99.715 0 .445.386.705.917.705.737 0 1.283-.469 1.283-1.083zm-3.184.423c0-.891.664-1.406 1.843-1.479l1.34-.077v-.428c0-.522-.345-.818-1.012-.818-.546 0-.924.2-1.033.55h-.946c.1-.85.9-1.396 2.024-1.396 1.242 0 1.941.618 1.941 1.664v3.385h-.94v-.696h-.078c-.295.496-.836.777-1.488.777-.954 0-1.65-.577-1.65-1.482zM41.623 4.408c0 1.05.495 1.683 1.323 1.683.824 0 1.333-.642 1.333-1.679 0-1.032-.514-1.683-1.333-1.683-.823 0-1.323.637-1.323 1.679zm-1.01 0c0-1.566.805-2.557 2.056-2.557.679 0 1.25.324 1.52.87h.073V0h.977v6.887h-.936v-.783h-.079c-.294.542-.873.864-1.555.864-1.26 0-2.056-.99-2.056-2.56zM52.95 4.408c0-1.074-.483-1.7-1.33-1.7-.85 0-1.327.626-1.327 1.7 0 1.082.477 1.706 1.328 1.706.846 0 1.329-.628 1.329-1.706zm-3.667 0c0-1.596.892-2.57 2.338-2.57 1.442 0 2.334.974 2.334 2.57 0 1.606-.888 2.575-2.334 2.575-1.45 0-2.338-.97-2.338-2.575zM55.267 1.934h.94v.786h.073c.241-.55.733-.882 1.479-.882 1.105 0 1.715.663 1.715 1.843v3.206h-.978V3.926c0-.796-.346-1.193-1.07-1.193-.722 0-1.182.483-1.182 1.256v2.898h-.977V1.934M64.997.7v1.256h1.073v.824h-1.073v2.546c0 .52.214.747.7.747.151 0 .237-.01.373-.023v.814c-.16.027-.342.05-.532.05-1.087 0-1.52-.382-1.52-1.337V2.78h-.786v-.824h.787V.7h.978M67.406 0h.969v2.73h.077c.24-.555.763-.887 1.51-.887 1.055 0 1.706.668 1.706 1.846v3.198h-.979V3.93c0-.79-.368-1.192-1.059-1.192-.8 0-1.247.506-1.247 1.256v2.893h-.977V0M73.929 3.953h2.502c-.023-.777-.496-1.283-1.22-1.283-.722 0-1.227.51-1.282 1.283zm3.438 1.597c-.222.887-1.014 1.433-2.146 1.433-1.419 0-2.288-.974-2.288-2.558 0-1.583.888-2.587 2.284-2.587 1.378 0 2.21.942 2.21 2.497v.341h-3.498v.055c.033.868.538 1.42 1.319 1.42.593 0 .997-.215 1.179-.601h.94z"
                transform="translate(10.57 8.632) translate(27.3 .649)"></path>
            </g>
          </g>
        </g>
      </g>
    </g>
  </g>
</svg>