<svg xmlns="http://www.w3.org/2000/svg" width="78.77" height="19.234" viewBox="0 0 78.77 19.234"><defs><style>.a{fill:#fff;}.b{fill:#253b80;}.c{fill:#aec1d5;}.d{fill:#e7ecf2;}</style></defs><g transform="translate(0.011)"><path class="a" d="M42.385,6.75H38.025a.637.637,0,0,0-.6.51L35.667,18.438a.363.363,0,0,0,.357.421h2.084a.6.6,0,0,0,.593-.516l.478-3.014a.637.637,0,0,1,.6-.51h1.377c2.874,0,4.531-1.389,4.965-4.143a3.371,3.371,0,0,0-.554-2.811A4.04,4.04,0,0,0,42.385,6.75Zm.5,4.079C42.652,12.4,41.454,12.4,40.3,12.4h-.637l.44-2.938a.363.363,0,0,1,.357-.306h.306c.784,0,1.53,0,1.912.452A1.434,1.434,0,0,1,42.888,10.829Z" transform="translate(-12.938 -2.448)"/><path class="a" d="M61.028,12.961H58.944a.363.363,0,0,0-.357.312l-.1.58-.147-.21a3.03,3.03,0,0,0-2.466-.873,4.8,4.8,0,0,0-4.659,4.194A3.932,3.932,0,0,0,52,20.15a3.269,3.269,0,0,0,2.632,1.064,4,4,0,0,0,2.887-1.192l-.1.58a.37.37,0,0,0,.363.421H59.7a.6.6,0,0,0,.593-.516l1.128-7.144a.363.363,0,0,0-.389-.4Zm-2.906,4.066a2.333,2.333,0,0,1-2.358,1.995,1.765,1.765,0,0,1-1.4-.567,1.791,1.791,0,0,1-.325-1.466,2.345,2.345,0,0,1,2.339-2.008,1.753,1.753,0,0,1,1.389.567,1.816,1.816,0,0,1,.357,1.479Z" transform="translate(-18.555 -4.632)"/><path class="a" d="M78.564,13.07h-2.1a.637.637,0,0,0-.5.268L73.071,17.6l-1.23-4.1a.637.637,0,0,0-.58-.433H69.2a.363.363,0,0,0-.344.484l2.307,6.781L68.992,23.4a.363.363,0,0,0,.3.574h2.1a.637.637,0,0,0,.5-.261l6.972-10.05a.363.363,0,0,0-.293-.593Z" transform="translate(-24.97 -4.74)"/><path class="a" d="M91.171,6.75H86.805a.637.637,0,0,0-.6.51L84.447,18.438a.363.363,0,0,0,.357.421h2.237a.427.427,0,0,0,.421-.363l.5-3.187a.637.637,0,0,1,.6-.51h1.377c2.874,0,4.531-1.389,4.965-4.143a3.352,3.352,0,0,0-.542-2.791A4.083,4.083,0,0,0,91.171,6.75Zm.5,4.079C91.439,12.4,90.241,12.4,89.087,12.4H88.45l.433-2.938a.37.37,0,0,1,.357-.306h.306c.784,0,1.53,0,1.912.452a1.434,1.434,0,0,1,.21,1.224Z" transform="translate(-30.63 -2.448)"/><path class="a" d="M109.81,12.961h-2.084a.363.363,0,0,0-.357.312l-.1.58-.147-.21a3.025,3.025,0,0,0-2.46-.873,4.8,4.8,0,0,0-4.659,4.194,3.913,3.913,0,0,0,.778,3.187,3.257,3.257,0,0,0,2.626,1.064,3.983,3.983,0,0,0,2.887-1.192l-.089.58a.363.363,0,0,0,.357.421h1.912a.637.637,0,0,0,.6-.516l1.1-7.125a.37.37,0,0,0-.363-.421ZM106.9,17.027a2.326,2.326,0,0,1-2.358,1.995,1.746,1.746,0,0,1-1.4-.567,1.765,1.765,0,0,1-.331-1.466,2.345,2.345,0,0,1,2.339-2.008,1.778,1.778,0,0,1,1.4.567A1.81,1.81,0,0,1,106.9,17.027Z" transform="translate(-36.249 -4.632)"/><path class="a" d="M118.272,7.056l-1.784,11.382a.363.363,0,0,0,.357.421h1.8a.637.637,0,0,0,.6-.516l1.765-11.172a.363.363,0,0,0-.357-.421h-2.014a.37.37,0,0,0-.363.306Z" transform="translate(-42.251 -2.448)"/><path class="b" d="M5.018,18.94l.331-2.116H1.06L3.526,1.185a.223.223,0,0,1,.045-.121A.2.2,0,0,1,3.724,1H9.7c1.988,0,3.352.427,4.066,1.275A2.83,2.83,0,0,1,14.405,3.5a4.461,4.461,0,0,1,0,1.683v.484l.338.185a2.441,2.441,0,0,1,.682.523,2.377,2.377,0,0,1,.548,1.23A5.334,5.334,0,0,1,15.9,9.4a6.233,6.233,0,0,1-.739,2.027A4.13,4.13,0,0,1,14,12.7a4.773,4.773,0,0,1-1.568.707,7.979,7.979,0,0,1-1.957.223h-.465a1.415,1.415,0,0,0-.911.338,1.389,1.389,0,0,0-.427.809l-.038.191-.6,3.735v.134a.115.115,0,0,1-.038.083.108.108,0,0,1-.064,0Z" transform="translate(-0.388 -0.363)"/><path class="c" d="M16.935,7.67h0a1.771,1.771,0,0,1-.064.351c-.784,4.047-3.486,5.443-6.928,5.443H8.191a.848.848,0,0,0-.848.72h0l-.892,5.7L6.2,21.493a.446.446,0,0,0,.44.523h3.11a.746.746,0,0,0,.739-.637l.032-.159L11.1,17.5l.038-.2a.746.746,0,0,1,.739-.637h.465c3.014,0,5.373-1.224,6.061-4.761A4.011,4.011,0,0,0,17.77,8.32,3.015,3.015,0,0,0,16.935,7.67Z" transform="translate(-2.249 -2.782)"/><path class="d" d="M16.781,6.99l-.37-.1-.4-.076a9.738,9.738,0,0,0-1.549-.108H9.783a.752.752,0,0,0-.319.07.778.778,0,0,0-.421.561L8.05,13.65v.185a.848.848,0,0,1,.841-.72h1.753c3.441,0,6.144-1.4,6.928-5.443a2.124,2.124,0,0,1,.064-.351A3.76,3.76,0,0,0,17,7.048Z" transform="translate(-2.923 -2.433)"/><path class="a" d="M6.121,4.907a.771.771,0,0,1,.421-.561.752.752,0,0,1,.319-.07h4.684a9.7,9.7,0,0,1,1.549.115l.4.07.37.1.178.057a3.76,3.76,0,0,1,.637.274,3.81,3.81,0,0,0-.809-3.435C12.985.433,11.372,0,9.314,0H3.336a.848.848,0,0,0-.841.72L0,16.506a.51.51,0,0,0,.51.593H4.2l.924-5.882Z" transform="translate(0 0)"/></g></svg>