<svg
  xmlns="http://www.w3.org/2000/svg" width="30" height="30" viewBox="0 0 30 30">
  <g transform="translate(-97 -4775.697)">
    <path
      d="M2657.554,2016.645q-.025-.688-.1-1.4a9.2,9.2,0,0,0-.211-1.258,2.285,2.285,0,0,0-.544-.977,2.048,2.048,0,0,0-.951-.572,8.93,8.93,0,0,0-1.6-.212c-.713-.045-1.453-.081-2.224-.1s-1.709-.047-2.82-.071l-2.836.062c-.769.017-1.511.053-2.224.1a11.382,11.382,0,0,0-1.6.2,2.048,2.048,0,0,0-.943.581,2.271,2.271,0,0,0-.552.986,8.654,8.654,0,0,0-.2,1.258c-.046.476-.079.94-.1,1.39s-.039.99-.052,1.611q.019.916.052,1.6c.022.456.056.921.1,1.39a8.087,8.087,0,0,0,.2,1.232,2.243,2.243,0,0,0,.543.994,2.039,2.039,0,0,0,.951.572,9.284,9.284,0,0,0,1.6.212q1.061.071,2.224.1c.777.024,1.718.041,2.828.054q1.666-.019,2.82-.045c.771-.017,1.511-.051,2.224-.1a11.137,11.137,0,0,0,1.6-.2,2.047,2.047,0,0,0,.951-.572,2.259,2.259,0,0,0,.544-.994,8.066,8.066,0,0,0,.2-1.241q.068-.713.1-1.39c.022-.452.039-.988.05-1.611C2657.585,2017.637,2657.571,2017.1,2657.554,2016.645Zm-10.147,4.223v-5.279l4.415,2.657Z"
      transform="translate(-2536.878 2771.979)" fill="#fff"></path>
  </g>
</svg>