<svg xmlns="http://www.w3.org/2000/svg" width="20" height="17" viewBox="0 0 20 17">
  <g fill="none" fill-rule="evenodd">
    <g fill="#FFF">
      <g>
        <g>
          <g>
            <g>
              <path
                d="M25.561 12.463c.842-.506 1.484-1.3 1.786-2.259-.785.471-1.651.804-2.574.99-.745-.8-1.807-1.294-2.965-1.294-2.248 0-4.057 1.837-4.057 4.089 0 .324.027.635.094.932-3.374-.166-6.36-1.795-8.366-4.276-.35.612-.556 1.312-.556 2.066 0 1.416.724 2.67 1.803 3.397-.652-.012-1.292-.203-1.834-.503v.045c0 1.986 1.407 3.636 3.252 4.016-.33.091-.69.135-1.064.135-.26 0-.522-.015-.769-.07.526 1.619 2.019 2.809 3.793 2.847-1.38 1.088-3.134 1.744-5.033 1.744-.332 0-.652-.015-.971-.056 1.798 1.167 3.93 1.834 6.227 1.834 7.47 0 11.553-6.23 11.553-11.632 0-.18-.006-.355-.014-.528.805-.576 1.482-1.295 2.034-2.122-.736.325-1.52.54-2.339.645z"
                transform="translate(-38 -543) translate(20 235) translate(10 160) translate(0 138) translate(0 .5)">
              </path>
            </g>
          </g>
        </g>
      </g>
    </g>
  </g>
</svg>