<svg xmlns="http://www.w3.org/2000/svg" fill="none" width="150" height="44"
  viewBox="0 0 924 274">
  <path
    d="M889.35 273.97H34.65c-18.803 0-34.188-15.409-34.188-34.243V34.267C.462 15.433 15.847.024 34.65.024h854.7c18.803 0 34.188 15.409 34.188 34.243v205.46c0 18.834-15.384 34.243-34.188 34.243"
    fill="#000"></path>
  <g fill="#fff">
    <path
      d="M324.69 70.18c0 5.738-1.696 10.307-5.094 13.716-3.859 4.053-8.889 6.081-15.072 6.081-5.922 0-10.956-2.055-15.096-6.169-4.148-4.112-6.218-9.211-6.218-15.294s2.07-11.182 6.218-15.298c4.14-4.111 9.174-6.169 15.096-6.169 2.938 0 5.751.576 8.422 1.723s4.813 2.678 6.415 4.59l-3.606 3.614c-2.716-3.25-6.455-4.874-11.231-4.874-4.319 0-8.053 1.52-11.204 4.562s-4.728 6.993-4.728 11.851 1.575 8.807 4.728 11.852 6.885 4.561 11.204 4.561c4.581 0 8.4-1.528 11.458-4.588 1.985-1.993 3.133-4.765 3.44-8.323h-14.899v-4.936h19.881c.192 1.073.285 2.103.285 3.101">
    </path>
    <path
      d="M324.69 70.18h-.684c-.005 5.607-1.64 9.962-4.894 13.232l-.007.005-.003.006c-3.737 3.913-8.54 5.861-14.579 5.869-5.763-.008-10.587-1.977-14.615-5.969-4.019-3.999-6.007-8.882-6.014-14.81.007-5.931 1.995-10.811 6.014-14.808 4.028-3.994 8.852-5.966 14.615-5.974 2.851 0 5.564.557 8.152 1.667 2.591 1.118 4.638 2.584 6.162 4.404l.524-.442-.483-.484-3.606 3.617.483.482.527-.438c-2.843-3.411-6.833-5.131-11.758-5.121-4.479-.005-8.419 1.597-11.678 4.755-3.29 3.167-4.943 7.338-4.938 12.343-.005 5.006 1.648 9.176 4.938 12.344 3.259 3.157 7.199 4.76 11.677 4.754 4.733.008 8.767-1.6 11.943-4.789 2.12-2.13 3.323-5.08 3.638-8.748l.063-.744h-14.96v-3.566h19.197v-.685l-.674.12a16.66 16.66 0 0 1 .276 2.981h1.367c0-1.041-.096-2.111-.296-3.224l-.102-.562H303.84V72.7h15.582v-.685l-.681-.059c-.301 3.446-1.397 6.041-3.242 7.898-2.938 2.932-6.544 4.379-10.975 4.387-4.159-.005-7.687-1.44-10.729-4.369-3.013-2.919-4.511-6.645-4.519-11.359.008-4.714 1.506-8.44 4.519-11.359 3.042-2.929 6.57-4.363 10.729-4.369 4.623.011 8.115 1.541 10.708 4.631l.481.572 4.132-4.144.443-.444-.403-.48c-1.68-2.006-3.919-3.598-6.67-4.78s-5.665-1.78-8.691-1.78c-6.079-.005-11.325 2.135-15.58 6.37-4.27 4.227-6.423 9.54-6.417 15.781-.006 6.238 2.147 11.555 6.42 15.784 4.252 4.233 9.498 6.37 15.577 6.365 6.33.006 11.581-2.1 15.566-6.293l-.494-.473.483.484c3.542-3.545 5.299-8.333 5.295-14.2h-.684zm31.517-17.165h-18.684v13.029h16.849v4.938h-16.849v13.029h18.684v5.048h-23.951V47.967h23.951v5.048z">
    </path>
    <path
      d="M356.21 53.016v-.685h-19.367V66.73h16.848v3.566l-16.849.002v14.399h18.684v3.678h-22.583V48.654h22.583v4.363h.684v-.685.685h.683v-5.733h-25.317v42.462h25.317v-6.418H338.21V71.669h16.849v-6.307H338.21V53.703h18.683v-.685h-.683zm22.23 36.044h-5.275V53.016h-11.459v-5.048h28.192v5.048H378.44V89.06">
    </path>
    <path
      d="M378.44 89.06v-.685h-4.592V52.331H362.39v-3.678h26.824v3.678h-11.458V89.06h.684v-.685.685h.684V53.701h11.458v-6.418h-29.559v6.417h11.458v36.044h6.643v-.685h-.684 0zm31.856 0V47.968h5.27V89.06h-5.27">
    </path>
    <path
      d="M410.29 89.06h.684V48.653h3.902v39.722h-4.586v.685h.684-.684v.685h5.954V47.283h-6.637v42.462h.683v-.685h0zm28.654 0h-5.275V53.016h-11.458v-5.048h28.191v5.048h-11.458V89.06">
    </path>
    <path
      d="M438.95 89.06v-.685h-4.592V52.331h-11.457v-3.678h26.824v3.678h-11.459V89.06h.684v-.685.685h.684V53.701h11.458v-6.418h-29.559v6.417h11.458v36.044h6.643v-.685h-.684 0zm38.638-8.751c3.036 3.079 6.752 4.617 11.146 4.617s8.111-1.538 11.143-4.617c3.04-3.079 4.562-7.015 4.562-11.796s-1.522-8.716-4.562-11.795c-3.032-3.079-6.749-4.617-11.143-4.617s-8.11 1.538-11.146 4.618-4.554 7.015-4.554 11.795 1.522 8.716 4.554 11.796zm26.188 3.44c-4.033 4.154-9.049 6.228-15.042 6.228-5.999 0-11.013-2.074-15.037-6.228-4.037-4.15-6.045-9.229-6.045-15.236s2.008-11.087 6.045-15.236c4.024-4.155 9.038-6.231 15.037-6.231 5.962 0 10.964 2.087 15.016 6.258 4.046 4.171 6.071 9.24 6.071 15.209 0 6.006-2.02 11.086-6.045 15.236z">
    </path>
    <path
      d="M477.58 80.309l-.486.481c3.149 3.202 7.078 4.829 11.632 4.821 4.551.008 8.485-1.618 11.629-4.821 3.17-3.205 4.765-7.352 4.76-12.277.004-4.925-1.59-9.072-4.76-12.277-3.144-3.202-7.078-4.829-11.629-4.821-4.554-.008-8.483 1.618-11.632 4.821-3.163 3.205-4.76 7.352-4.752 12.277-.008 4.925 1.589 9.072 4.752 12.277l.486-.481.486-.482c-2.9-2.956-4.351-6.675-4.356-11.314.005-4.639 1.456-8.357 4.356-11.314 2.927-2.956 6.423-4.406 10.66-4.414 4.233.008 7.737 1.458 10.657 4.414 2.906 2.957 4.356 6.676 4.361 11.314-.005 4.638-1.455 8.358-4.361 11.314-2.92 2.956-6.424 4.406-10.657 4.414-4.237-.008-7.733-1.458-10.66-4.414l-.486.482zm26.188 3.44l-.488-.476c-3.921 4.023-8.715 6.011-14.554 6.019-5.841-.008-10.636-1.996-14.549-6.019l-.019-.022.019.022c-3.913-4.037-5.843-8.906-5.849-14.76.006-5.854 1.936-10.722 5.849-14.759 3.913-4.024 8.707-6.014 14.549-6.022 5.801.008 10.584 2.007 14.527 6.051 3.926 4.056 5.868 8.917 5.876 14.73-.008 5.854-1.944 10.722-5.849 14.76l.488.476.492.476c4.145-4.264 6.242-9.553 6.237-15.711.005-6.123-2.1-11.402-6.264-15.685-4.166-4.3-9.385-6.474-15.507-6.467-6.154-.007-11.389 2.157-15.529 6.44v-.003c-4.153 4.267-6.242 9.556-6.237 15.714-.005 6.158 2.084 11.448 6.237 15.714l.019.019-.019-.022c4.14 4.283 9.375 6.443 15.529 6.437 6.151.006 11.386-2.154 15.534-6.437l-.492-.476zm13.443 5.311V47.968h6.416l19.939 31.967h.227l-.227-7.919V47.968h5.275V89.06h-5.503l-20.86-33.516h-.227l.227 7.922v25.594h-5.267">
    </path>
    <path
      d="M517.22 89.06h.684V48.653h5.353l19.938 31.967h1.309l-.246-8.614V48.654h3.908v39.722h-4.439l-20.86-33.516h-1.309l.246 8.618v24.898h-4.584v.685h.684-.684v.685h5.951v-26.29l-.227-7.929-.684.019v.685h.227v-.685l-.579.364 21.06 33.837h6.565V47.284h-6.642v24.741l.227 7.929.684-.019v-.685h-.227v.685l.579-.364-20.139-32.288h-7.478v42.462h.684v-.685h-.001zm214.43 116.43h12.759v-85.617H731.65v85.617zm114.92-54.776l-14.625 37.119h-.438l-15.179-37.119h-13.744l22.762 51.881-12.977 28.858h13.313l35.077-80.739H846.57zm-72.355 45.051c-4.185 0-10.01-2.092-10.01-7.271 0-6.608 7.261-9.141 13.524-9.141 5.614 0 8.247 1.211 11.659 2.865-.992 7.929-7.809 13.547-15.173 13.547zm1.538-46.924c-9.237 0-18.803 4.077-22.762 13.109l11.323 4.735c2.42-4.735 6.927-6.279 11.658-6.279 6.598 0 13.306 3.968 13.416 11.017v.88c-2.312-1.322-7.255-3.304-13.306-3.304-12.205 0-24.636 6.718-24.636 19.275 0 11.456 10.01 18.837 21.224 18.837 8.581 0 13.306-3.855 16.28-8.371h.438v6.608h12.314v-32.826c0-15.197-11.323-23.681-25.949-23.681zm-78.851 12.295h-18.147v-29.347h18.147c9.539 0 14.954 7.911 14.954 14.673 0 6.635-5.416 14.674-14.954 14.674zm-.328-41.263h-30.571v85.617h12.752v-32.438h17.819c14.14 0 28.041-10.254 28.041-26.59s-13.901-26.589-28.041-26.589zm-166.71 75.908c-8.814 0-16.194-7.392-16.194-17.544 0-10.259 7.38-17.764 16.194-17.764 8.702 0 15.532 7.504 15.532 17.764 0 10.152-6.83 17.544-15.532 17.544zm14.65-40.273h-.44c-2.864-3.419-8.374-6.509-15.313-6.509-14.541 0-27.868 12.798-27.868 29.238 0 16.33 13.327 29.018 27.868 29.018 6.939 0 12.449-3.09 15.313-6.618h.44v4.192c0 11.145-5.948 17.103-15.531 17.103-7.821 0-12.668-5.629-14.653-10.372l-11.124 4.634c3.194 7.723 11.677 17.212 25.777 17.212 14.981 0 27.649-8.828 27.649-30.343v-52.298h-12.118v4.743zm20.93 49.982h12.778v-85.62h-12.778v85.62zm31.615-28.246c-.331-11.255 8.703-16.99 15.201-16.99 5.071 0 9.365 2.536 10.794 6.18l-25.995 10.81zm39.657-9.708c-2.421-6.512-9.806-18.537-24.897-18.537-14.981 0-27.428 11.806-27.428 29.128 0 16.33 12.337 29.128 28.86 29.128 13.331 0 21.044-8.165 24.237-12.908l-9.914-6.621c-3.303 4.855-7.822 8.055-14.323 8.055s-11.124-2.98-14.1-8.826l38.884-16.11-1.319-3.309zm-309.8-9.599v12.357h29.521c-.881 6.95-3.194 12.025-6.72 15.556-4.295 4.305-11.014 9.048-22.801 9.048-18.177 0-32.386-14.674-32.386-32.879s14.209-32.881 32.386-32.881c9.804 0 16.963 3.863 22.251 8.828l8.702-8.716c-7.38-7.063-17.185-12.469-30.953-12.469-24.896 0-45.826 20.302-45.826 45.238s20.93 45.236 45.826 45.236c13.44 0 23.573-4.411 31.503-12.688 8.152-8.165 10.687-19.639 10.687-28.906 0-2.871-.219-5.517-.663-7.724h-41.527zm75.753 37.844c-8.814 0-16.416-7.282-16.416-17.654 0-10.482 7.602-17.654 16.416-17.654s16.412 7.172 16.412 17.654c0 10.372-7.601 17.654-16.412 17.654zm0-46.782c-16.085 0-29.194 12.247-29.194 29.128 0 16.771 13.109 29.128 29.194 29.128s29.19-12.357 29.19-29.128c0-16.881-13.109-29.128-29.19-29.128zm63.68 46.782c-8.811 0-16.413-7.282-16.413-17.654 0-10.482 7.602-17.654 16.413-17.654s16.413 7.172 16.413 17.654c0 10.372-7.601 17.654-16.413 17.654zm0-46.782c-16.084 0-29.19 12.247-29.19 29.128 0 16.771 13.106 29.128 29.19 29.128s29.191-12.357 29.191-29.128c0-16.881-13.109-29.128-29.191-29.128z">
    </path>
  </g>
  <path
    d="M72.315 52.154c-2.295 2.074-3.664 5.532-3.664 10.123v-1.038 151.5-.998c0 4.24 1.175 7.514 3.164 9.623l.508.487v.002c1.61 1.455 3.675 2.228 6.042 2.226 2.313 0 4.914-.739 7.66-2.298l99.25-56.483 34.091-19.404c4.33-2.463 6.76-5.642 7.167-8.879v-.013c-.407-3.245-2.837-6.421-7.167-8.885l-34.094-19.401-99.246-56.483c-2.752-1.562-5.355-2.303-7.674-2.303-2.364 0-4.426.77-6.036 2.223h-.001z"
    fill="#00c1ff"></path>
  <path
    d="M72.324 221.85l-.508-.487c-1.99-2.109-3.164-5.383-3.164-9.623v.998-151.46 1c0-4.591 1.37-8.05 3.664-10.123l84.717 84.852-84.708 84.846z"
    fill="url(#A)"></path>
  <path
    d="M185.28 165.3l-28.243-28.293 28.24-28.289 34.094 19.401c4.33 2.464 6.76 5.64 7.167 8.885v.013c-.407 3.237-2.837 6.416-7.167 8.879l-34.091 19.403"
    fill="url(#B)"></path>
  <path
    d="M78.365 224.08c-2.366.002-4.431-.771-6.041-2.227v-.002l84.708-84.846 28.243 28.293-99.25 56.484c-2.746 1.559-5.348 2.298-7.66 2.298z"
    fill="url(#C)"></path>
  <path
    d="M157.03 137.01L72.313 52.158c1.61-1.453 3.673-2.223 6.036-2.223 2.319 0 4.923.741 7.674 2.303l99.247 56.483-28.24 28.289"
    fill="url(#D)"></path>
  <path
    d="M78.368 225.08c-2.366 0-4.434-.773-6.044-2.229l-.003.003c-.007-.007-.014-.013-.021-.019l-.441-.431c-.014-.013-.027-.029-.043-.045l.508-.508c1.61 1.455 3.675 2.228 6.042 2.225 2.312 0 4.914-.738 7.66-2.297l99.249-56.483.636.637-.644.366-99.242 56.48c-2.502 1.421-4.883 2.162-7.032 2.285l-.625.015"
    fill="url(#E)"></path>
  <path
    d="M71.815 222.36c-1.99-2.108-3.164-5.38-3.164-9.622v-.998c0 4.24 1.175 7.514 3.164 9.623l.508.487-.508.51z"
    fill="url(#F)"></path>
  <path
    d="M185.91 165.94l-.635-.638 34.091-19.403c4.33-2.463 6.76-5.642 7.167-8.879 0 1.188-.265 2.376-.791 3.532-1.06 2.33-3.186 4.531-6.376 6.348l-33.456 19.04"
    fill="url(#G)"></path>
  <path
    d="M226.53 137c-.407-3.245-2.837-6.421-7.167-8.885l-34.094-19.401.636-.637h.002l33.456 19.04c4.774 2.719 7.164 6.3 7.167 9.883z"
    fill="url(#H)"></path>
  <path
    d="M68.651 62.277v-1.047l.029-1.105v-.016l.002-.056c.206-3.652 1.338-6.501 3.133-8.403l.5.503c-2.295 2.074-3.664 5.533-3.664 10.124z"
    fill="url(#I)"></path>
  <path
    d="M185.27 108.72L86.023 52.237c-2.751-1.562-5.355-2.303-7.674-2.303-2.364 0-4.426.77-6.036 2.223l-.5-.503.486-.479c.005-.005.014-.011.019-.016 1.597-1.442 3.638-2.212 5.981-2.226h.05c2.319 0 4.922.741 7.674 2.304l99.885 56.844-.002.002-.636.637z"
    fill="url(#J)"></path>
  <defs>
    <linearGradient id="A" x1="122.79" x2="49.783" y1="59.676" y2="132.8" xlink:href="#K" xmlns:xlink="http://www.w3.org/1999/xlink">
      <stop stop-color="#00a0ff" offset="0"></stop>
      <stop stop-color="#00a1ff" offset=".007"></stop>
      <stop stop-color="#00beff" offset=".26"></stop>
      <stop stop-color="#00d2ff" offset=".512"></stop>
      <stop stop-color="#00dfff" offset=".76"></stop>
      <stop stop-color="#00e3ff" offset="1"></stop>
    </linearGradient>
    <linearGradient id="B" x1="231.81" x2="66.358" y1="136.52" y2="136.52" xlink:href="#K" xmlns:xlink="http://www.w3.org/1999/xlink">
      <stop stop-color="#ffe000" offset="0"></stop>
      <stop stop-color="#ffbd00" offset=".409"></stop>
      <stop stop-color="orange" offset=".775"></stop>
      <stop stop-color="#ff9c00" offset="1"></stop>
    </linearGradient>
    <linearGradient id="C" x1="170.28" x2="46.565" y1="163.9" y2="286.92" xlink:href="#K" xmlns:xlink="http://www.w3.org/1999/xlink">
      <stop stop-color="#ff3a44" offset="0"></stop>
      <stop stop-color="#c31162" offset="1"></stop>
    </linearGradient>
    <linearGradient id="D" x1="50.481" x2="105.62" y1="39.575" y2="94.482" xlink:href="#K" xmlns:xlink="http://www.w3.org/1999/xlink">
      <stop stop-color="#32a071" offset="0"></stop>
      <stop stop-color="#2da771" offset=".069"></stop>
      <stop stop-color="#15cf74" offset=".476"></stop>
      <stop stop-color="#06e775" offset=".801"></stop>
      <stop stop-color="#00f076" offset="1"></stop>
    </linearGradient>
    <linearGradient id="E" x1="170.22" x2="71.141" y1="183.53" y2="282.77" xlink:href="#K" xmlns:xlink="http://www.w3.org/1999/xlink">
      <stop stop-color="#cc2e36" offset="0"></stop>
      <stop stop-color="#9c0e4e" offset="1"></stop>
    </linearGradient>
    <linearGradient id="F" x1="79.936" x2="15.618" y1="59.676" y2="124.1" xlink:href="#K" xmlns:xlink="http://www.w3.org/1999/xlink">
      <stop stop-color="#008de0" offset="0"></stop>
      <stop stop-color="#008de0" offset=".007"></stop>
      <stop stop-color="#00a7e0" offset=".26"></stop>
      <stop stop-color="#00b8e0" offset=".512"></stop>
      <stop stop-color="#00c4e0" offset=".76"></stop>
      <stop stop-color="#00c7e0" offset="1"></stop>
    </linearGradient>
    <linearGradient id="G" x1="231.81" x2="66.358" y1="137.01" y2="137.01" xlink:href="#K" xmlns:xlink="http://www.w3.org/1999/xlink">
      <stop stop-color="#e0c500" offset="0"></stop>
      <stop stop-color="#e0a600" offset=".409"></stop>
      <stop stop-color="#e09100" offset=".775"></stop>
      <stop stop-color="#e08900" offset="1"></stop>
    </linearGradient>
    <linearGradient id="H" x1="231.81" x2="66.359" y1="137.01" y2="137.01" xlink:href="#K" xmlns:xlink="http://www.w3.org/1999/xlink">
      <stop stop-color="#ffe840" offset="0"></stop>
      <stop stop-color="#ffce40" offset=".409"></stop>
      <stop stop-color="#ffbc40" offset=".775"></stop>
      <stop stop-color="#ffb540" offset="1"></stop>
    </linearGradient>
    <linearGradient id="I" x1="79.867" x2="17.917" y1="59.793" y2="119.15" xlink:href="#K" xmlns:xlink="http://www.w3.org/1999/xlink">
      <stop stop-color="#40b8ff" offset="0"></stop>
      <stop stop-color="#40b9ff" offset=".007"></stop>
      <stop stop-color="#40ceff" offset=".26"></stop>
      <stop stop-color="#40ddff" offset=".512"></stop>
      <stop stop-color="#40e7ff" offset=".76"></stop>
      <stop stop-color="#40eaff" offset="1"></stop>
    </linearGradient>
    <linearGradient id="J" x1="50.358" x2="94.6" y1="57.519" y2="101.83" xlink:href="#K" xmlns:xlink="http://www.w3.org/1999/xlink">
      <stop stop-color="#65b895" offset="0"></stop>
      <stop stop-color="#62bd95" offset=".069"></stop>
      <stop stop-color="#50db97" offset=".476"></stop>
      <stop stop-color="#44ed98" offset=".801"></stop>
      <stop stop-color="#40f498" offset="1"></stop>
    </linearGradient>
    <linearGradient id="K" gradientUnits="userSpaceOnUse"></linearGradient>
  </defs>
</svg>