<svg xmlns="http://www.w3.org/2000/svg"
  width="30" height="30" viewBox="0 0 30 30">
  <g transform="translate(-104.385 -4569.788)">
    <path
      d="M2683.273,1795.673v1.682h2.887l-.38,2.951h-2.506v7.643h-3.01v-7.643h-2.5v-2.951h2.5v-2.271a4.267,4.267,0,0,1,.546-2.18,3.4,3.4,0,0,1,3.23-1.7,18.342,18.342,0,0,1,2.228.129v2.641h-1.333c-.782,0-1.27.177-1.457.53a1.115,1.115,0,0,0-.129.289A3.089,3.089,0,0,0,2683.273,1795.673Z"
      transform="translate(-2562.522 2785.455)" fill="#fff"></path>
  </g>
</svg>