<svg xmlns="http://www.w3.org/2000/svg" width="69.856" height="24.87" viewBox="0 0 69.856 24.87"><defs><style>.a{fill:#fff;fill-rule:evenodd;}</style></defs><g transform="translate(0 -0.53)"><g transform="translate(0 0.53)"><path class="a" d="M50.178,6.507a2.93,2.93,0,0,0,2.871-2.987,2.87,2.87,0,1,0-5.736,0A2.927,2.927,0,0,0,50.178,6.507Zm-21.961,1.6a21.368,21.368,0,0,1-3.312,5.929V1.894l-6,1.236V25.146h6V18.335a24.3,24.3,0,0,1,2.6,6.8h7.187c-.712-3.081-3.82-8.76-3.82-8.76a27.842,27.842,0,0,0,4.211-8.265ZM44,7.88c-5.375.18-8.1,2.693-8.1,7.688v9.578h5.853v-7.8c0-2.992.376-4.272,3.78-4.394V7.977a7.892,7.892,0,0,0-1.54-.087ZM8.841,10.545C8.1,10.493,6.4,10.381,6.4,8.782c0-1.926,2.464-1.926,3.37-1.926a19.643,19.643,0,0,1,5.2.963s.832.321,1.54.619l.068.019V3.185l-.092-.029A20.034,20.034,0,0,0,8.878,1.894C2.323,1.894,0,5.874,0,9.283c0,1.964.807,6.59,8.317,7.126.635.042,2.323.141,2.323,1.791,0,1.361-1.38,2.163-3.7,2.163A17.536,17.536,0,0,1,.41,19.041v5.434a29.291,29.291,0,0,0,7.754.921c6.407,0,9.278-3.765,9.278-7.495,0-4.231-3.213-6.981-8.6-7.357Zm38.432,14.6h5.816V8.134H47.273ZM64.04,2.979V25.146h5.816V1.894Zm-8.49,0,5.813-1.085V25.146H55.55Z" transform="translate(0 -0.53)"/></g></g></svg>