<svg width="12" height="11" viewBox="0 0 12 11" fill="none" xmlns="http://www.w3.org/2000/svg">
<g clip-path="url(#clip0_2_1163)">
<path d="M5.62786 10.3412C5.53593 10.341 5.44674 10.3099 5.37474 10.2527C4.65382 9.67877 2.21095 7.66463 1.03307 5.83514C0.715735 5.40691 0.467967 4.96248 0.295355 4.5142C-0.0365901 3.81841 -0.00360433 3.01289 0.00516403 2.87744C-0.00201768 2.18591 0.378696 1.53171 0.420116 1.46298C0.690116 0.998598 1.08213 0.617026 1.55364 0.359663C2.02514 0.102301 2.55812 -0.0210235 3.09474 0.00307102C3.63137 0.0271655 4.15115 0.197759 4.59769 0.496341C5.04423 0.794924 5.40048 1.21009 5.62777 1.6968C5.85493 1.20993 6.21113 0.794597 6.65769 0.495887C7.10425 0.197178 7.62411 0.026509 8.16082 0.00241097C8.69753 -0.021687 9.23059 0.101707 9.70212 0.359195C10.1737 0.616684 10.5656 0.998427 10.8355 1.46298C10.8794 1.53613 11.2577 2.19067 11.2505 2.87736C11.2595 3.01323 11.2932 3.81632 10.9604 4.51412C10.7878 4.96206 10.54 5.40607 10.2234 5.83397C9.04485 7.66555 6.60173 9.67935 5.88097 10.2531C5.80893 10.3101 5.71974 10.3411 5.62786 10.3412ZM1.31533 5.81192C2.49847 7.57971 4.83102 9.50198 5.52957 10.0581C5.55744 10.0805 5.59213 10.0926 5.62786 10.0926C5.66357 10.0927 5.69824 10.0805 5.72606 10.0581C6.42394 9.50274 8.75299 7.58372 9.9378 5.81593L9.93004 5.81217L10.0192 5.69192C10.3255 5.27872 10.5646 4.85091 10.73 4.42042L10.7339 4.41115C11.0512 3.75002 11.0068 2.95661 11.0025 2.8913L11.0017 2.88629V2.87577C11.0085 2.24528 10.6455 1.62974 10.6232 1.59267L10.6206 1.58832C10.1396 0.762177 9.24769 0.248936 8.29286 0.248936C7.73452 0.249197 7.19005 0.4229 6.73472 0.746031C6.27939 1.06916 5.93568 1.52576 5.75112 2.05271C5.7422 2.07834 5.72552 2.10055 5.7034 2.11627C5.68129 2.13199 5.65482 2.14044 5.62769 2.14044C5.60056 2.14044 5.5741 2.13199 5.55198 2.11627C5.52986 2.10055 5.51319 2.07834 5.50427 2.05271C5.31969 1.52577 4.97598 1.06918 4.52065 0.746047C4.06532 0.422917 3.52086 0.249209 2.96253 0.248936C2.00778 0.248936 1.11582 0.762177 0.634899 1.58832L0.632478 1.59233C0.612436 1.62574 0.246837 2.2437 0.253768 2.87585V2.88613L0.252932 2.89114C0.248673 2.95569 0.204164 3.74977 0.521495 4.41099L0.525503 4.42026C0.690766 4.85074 0.929851 5.27847 1.23608 5.69159L1.32242 5.80808L1.31533 5.81192Z" fill="white"/>
</g>
<defs>
<clipPath id="clip0_2_1163">
<rect width="11.2557" height="10.3413" fill="white"/>
</clipPath>
</defs>
</svg>
