<svg width="102" height="102" viewBox="0 0 102 102" fill="none" xmlns="http://www.w3.org/2000/svg">
<g clip-path="url(#clip0_472_3132)">
<g opacity="0.1">
<path fill-rule="evenodd" clip-rule="evenodd" d="M61.6783 9.57146H48.1557V76.1142H61.6783V48.2142C63.0202 48.6052 64.4385 48.8147 65.9052 48.8147C68.0057 48.8147 70.0067 48.385 71.8268 47.6079C76.8123 45.4794 80.4398 40.7444 81.0327 35.0953C81.0891 34.5576 81.1181 34.0115 81.1181 33.4587C81.1181 24.9778 74.3071 18.1027 65.9053 18.1027C64.4385 18.1027 63.0203 18.3122 61.6783 18.7032V9.57146ZM31.2528 26.6336H44.7753V76.1141H31.2528V26.6336ZM14.3499 42.8428H28.7175V76.1141H14.3499V42.8428Z" fill="#1656D9"/>
</g>
<path d="M31.2542 48.8148H45.6218V82.0861H31.2542V48.8148Z" fill="#1656D9"/>
<path d="M48.1586 32.6056H61.6811V82.0861H48.1586V32.6056Z" fill="#1656D9"/>
<path fill-rule="evenodd" clip-rule="evenodd" d="M78.5826 15.5433H65.0601V82.0861H78.5826V54.1858C72.2374 52.3369 67.597 46.4307 67.597 39.4304C67.597 32.4302 72.2374 26.524 78.5826 24.675V15.5433ZM78.5826 29.6635C76.679 31.4664 76.6377 34.8215 76.6377 39.3211C76.6377 43.0905 77.0782 43.862 78.5826 43.7803V29.6635Z" fill="#1656D9"/>
<path fill-rule="evenodd" clip-rule="evenodd" d="M95.1263 37.7242H93.0359V40.2836H95.1931C94.7402 46.0311 90.2665 50.6479 84.584 51.3221V48.8146H82.0485V51.3577C76.2041 50.8321 71.559 46.1461 71.0971 40.2836H73.5965V37.7242H71.1639C71.9453 31.8042 77.0116 27.2353 83.1451 27.2353C89.2785 27.2353 94.3448 31.8042 95.1263 37.7242ZM71.061 39.1149C71.0599 39.1835 71.0593 39.2522 71.0593 39.3211C71.0593 39.3899 71.0599 39.4587 71.061 39.5272L71.061 39.1149ZM84.584 29.193H82.0485V37.7242V40.2835V40.2836H87.9646V37.7242H84.584V29.193Z" fill="black"/>
</g>
<defs>
<clipPath id="clip0_472_3132">
<rect width="102" height="102" fill="white"/>
</clipPath>
</defs>
</svg>
