<svg width="102" height="102" viewBox="0 0 102 102" fill="none" xmlns="http://www.w3.org/2000/svg">
<g opacity="0.1">
<path d="M28.1311 82.7665C24.5003 81.902 21.2152 80.2768 18.4143 77.7525C17.3423 76.7842 17.0657 76.1618 18.6217 75.4356C20.0741 74.744 21.3881 73.7758 22.5292 72.6347C25.7451 69.4188 26.7133 64.3356 24.7769 61.0505C22.9096 57.9038 18.1722 56.5206 13.7806 57.8346C12.2937 58.2842 10.8759 58.9412 9.5619 59.7711C7.93666 60.7393 7.79834 60.6702 7.45255 58.7337C6.10395 51.0571 8.59367 44.729 14.3685 39.715C19.4516 35.2888 25.5031 32.8682 32.1077 31.6925C32.5919 31.5888 33.1106 31.4159 33.6984 31.9346C32.6264 32.972 31.5545 33.9748 30.5171 34.9776C28.3732 37.0178 26.6788 39.4383 25.6068 42.2047C25.261 43.1383 24.6386 43.7262 23.8432 44.2103C22.0797 45.3169 20.5928 46.7 19.175 48.7748C20.5582 48.429 21.4918 48.2215 22.3909 47.9795C23.6358 47.6337 24.0853 48.0832 24.0507 49.3281C23.947 52.1982 24.4311 54.93 25.4339 57.6272C26.7479 61.1197 28.9264 63.9552 31.7274 66.3412C32.4535 66.9636 33.0068 67.6552 33.5947 68.3814C34.5629 69.5571 34.805 70.5599 33.076 71.3552C34.0442 72.0814 35.2545 71.0094 36.0498 72.0468C36.6377 72.8076 37.2601 73.5683 37.9171 74.2945C39.1274 75.6085 40.5106 76.7151 41.9975 77.7525C43.5536 78.859 43.519 78.9973 41.8246 79.9655C39.404 81.3487 36.7068 82.0403 34.0442 82.7665C32.0386 82.7665 30.1021 82.7665 28.1311 82.7665Z" fill="#1656D9"/>
<path d="M47.1498 6C53.7199 9.00842 54.1695 16.5468 51.7143 20.8346C50.2274 23.4627 48.0489 25.2262 44.9021 25.0187C41.7554 24.8458 39.7844 22.8402 38.5395 20.1084C36.361 15.4056 37.5021 8.66262 43.3461 6C44.6255 6 45.8704 6 47.1498 6Z" fill="#1656D9"/>
<path d="M84.4954 69.9721C82.3169 74.2946 79.2393 75.8852 74.8823 74.9516C70.0757 73.8796 66.3066 69.9375 66.1337 65.7188C65.9608 61.5693 69.9028 58.1805 74.3636 58.6992C79.4468 59.287 82.7664 62.088 84.4954 66.86C84.4954 67.8973 84.4954 68.9347 84.4954 69.9721Z" fill="#1656D9"/>
<path d="M6 66.8599C7.59066 62.1571 10.8411 59.3908 15.7514 58.7338C18.7253 58.3534 21.3879 59.2179 23.1514 61.7768C24.9496 64.3356 24.6038 67.0328 23.0823 69.5917C21.0075 73.0497 17.8262 74.8478 13.8496 75.1244C10.1495 75.4011 7.59066 73.4992 6 69.6263C6 68.6927 6 67.7936 6 66.8599Z" fill="#1656D9"/>
<path d="M66.7219 48.7057C66.0648 47.6337 66.1686 46.6655 65.9611 45.801C65.2349 42.6197 63.9555 39.6459 61.8807 37.1216C60.9817 36.0496 60.5667 34.9431 60.463 33.5599C60.3592 31.8309 60.1172 30.0674 58.9415 28.2692C58.5611 29.5832 58.2499 30.5515 57.9732 31.5543C57.6966 32.4533 57.3162 32.7646 56.348 32.2113C50.5732 28.7533 44.4526 28.2001 38.0554 30.2057C36.9835 30.5515 35.7732 30.4823 34.6321 30.6206C33.3526 30.7589 32.3152 30.6552 32.1769 28.7188C31.4507 31.5889 29.0993 31.0356 27.3012 31.5197C25.4339 31.9692 23.6358 32.5917 21.976 33.4907C20.9386 34.044 20.4545 33.7674 20.489 32.6262C20.6619 23.9468 24.4311 15.8897 34.2517 12.8813C35.7732 12.4318 36.2573 12.8468 36.1536 14.3682C36.0498 15.7514 36.2227 17.1346 36.5339 18.4832C36.8451 19.901 37.3293 21.2496 38.1937 22.4599C42.205 27.958 48.6368 28.1655 52.4751 22.0103C53.962 19.6243 54.2387 16.8926 54.2732 14.1954C54.3078 12.1897 54.3078 12.1206 56.2443 12.8813C64.5433 16.0626 68.7275 22.3215 69.6957 30.9664C70.249 35.8767 69.6265 40.7178 68.2434 45.4898C67.863 46.458 67.5172 47.53 66.7219 48.7057Z" fill="#1656D9"/>
<path d="M36.0844 69.3496C38.2283 69.9721 39.8881 70.6291 41.6171 70.9403C44.1068 71.3898 46.5619 71.3898 48.9825 70.8711C50.2965 70.5945 51.4377 70.802 52.6479 71.3207C53.9965 71.9085 55.3797 72.4964 56.9704 72.2889C57.005 71.4936 56.3825 71.2515 56.0022 70.8711C54.4807 69.315 54.4807 69.315 56.2442 68.2085C61.2237 65.0272 64.5433 60.601 65.8573 54.8262C66.2031 53.2356 66.791 51.7832 67.448 50.2963C68.0704 48.9131 68.6928 48.0832 70.5256 49.2243C68.2779 47.2533 69.7648 45.4552 70.3181 43.6225C70.8713 41.7552 71.2863 39.8187 71.2863 37.8477C71.2863 36.8795 71.5975 36.3608 72.6349 36.9832C80.4499 41.5823 85.291 49.0169 82.9742 58.8375C82.6284 60.359 82.1789 60.5664 80.8302 59.7019C77.8218 57.8001 74.6059 56.5898 71.0097 57.6272C65.062 59.3216 63.4368 63.6786 65.6498 69.2113C66.8255 72.1506 69.3498 73.845 71.9433 75.401C73.6031 76.3693 73.6377 76.5076 72.0816 77.7179C66.3069 82.3515 59.8751 83.7347 52.7863 81.487C46.3545 79.4468 41.1675 75.5048 36.7414 70.4562C36.603 70.2487 36.4993 70.0066 36.0844 69.3496Z" fill="#1656D9"/>
<path d="M45.2477 67.4133C35.5309 67.4133 27.6122 59.5983 27.6122 49.9506C27.6122 40.4067 35.6692 32.3842 45.2477 32.4188C54.8608 32.4534 62.8487 40.4758 62.8141 50.0544C62.8141 59.5983 54.8954 67.4133 45.2477 67.4133ZM45.2132 36.2917C37.5711 36.2917 31.5197 42.3431 31.4851 49.9506C31.4851 57.5927 37.6402 63.817 45.2477 63.7824C52.7861 63.7824 58.9758 57.5927 58.9758 50.0544C59.0104 42.3431 52.9244 36.2917 45.2132 36.2917Z" fill="#1656D9"/>
</g>
<path d="M44.1311 90.7665C40.5003 89.902 37.2152 88.2768 34.4143 85.7525C33.3423 84.7842 33.0657 84.1618 34.6217 83.4356C36.0741 82.744 37.3881 81.7758 38.5292 80.6347C41.7451 77.4188 42.7133 72.3356 40.7769 69.0505C38.9096 65.9038 34.1722 64.5206 29.7806 65.8346C28.2937 66.2842 26.8759 66.9412 25.5619 67.7711C23.9367 68.7393 23.7983 68.6702 23.4525 66.7337C22.1039 59.0571 24.5937 52.729 30.3685 47.715C35.4516 43.2888 41.5031 40.8682 48.1077 39.6925C48.5919 39.5888 49.1106 39.4159 49.6984 39.9346C48.6264 40.972 47.5545 41.9748 46.5171 42.9776C44.3732 45.0178 42.6788 47.4383 41.6068 50.2047C41.261 51.1383 40.6386 51.7262 39.8432 52.2103C38.0797 53.3169 36.5928 54.7 35.175 56.7748C36.5582 56.429 37.4918 56.2215 38.3909 55.9795C39.6358 55.6337 40.0853 56.0832 40.0507 57.3281C39.947 60.1982 40.4311 62.93 41.4339 65.6272C42.7479 69.1197 44.9264 71.9552 47.7274 74.3412C48.4535 74.9636 49.0068 75.6552 49.5947 76.3814C50.5629 77.5571 50.805 78.5599 49.076 79.3552C50.0442 80.0814 51.2545 79.0094 52.0498 80.0468C52.6377 80.8076 53.2601 81.5683 53.9171 82.2945C55.1274 83.6085 56.5106 84.7151 57.9975 85.7525C59.5536 86.859 59.519 86.9973 57.8246 87.9655C55.404 89.3487 52.7068 90.0403 50.0442 90.7665C48.0386 90.7665 46.1021 90.7665 44.1311 90.7665Z" fill="#1656D9"/>
<path d="M63.1498 14C69.7199 17.0084 70.1695 24.5468 67.7143 28.8346C66.2274 31.4627 64.0489 33.2262 60.9021 33.0187C57.7554 32.8458 55.7844 30.8402 54.5395 28.1084C52.361 23.4056 53.5021 16.6626 59.3461 14C60.6255 14 61.8704 14 63.1498 14Z" fill="#1656D9"/>
<path d="M100.495 77.9721C98.3169 82.2946 95.2393 83.8852 90.8823 82.9516C86.0757 81.8796 82.3066 77.9375 82.1337 73.7188C81.9608 69.5693 85.9028 66.1805 90.3636 66.6992C95.4468 67.287 98.7664 70.088 100.495 74.86C100.495 75.8973 100.495 76.9347 100.495 77.9721Z" fill="#1656D9"/>
<path d="M22 74.8599C23.5907 70.1571 26.8411 67.3908 31.7514 66.7338C34.7253 66.3534 37.3879 67.2179 39.1514 69.7768C40.9496 72.3356 40.6038 75.0328 39.0823 77.5917C37.0075 81.0497 33.8262 82.8478 29.8496 83.1244C26.1495 83.4011 23.5907 81.4992 22 77.6263C22 76.6927 22 75.7936 22 74.8599Z" fill="#1656D9"/>
<path d="M82.7219 56.7057C82.0648 55.6337 82.1686 54.6655 81.9611 53.801C81.2349 50.6197 79.9555 47.6459 77.8807 45.1216C76.9817 44.0496 76.5667 42.9431 76.463 41.5599C76.3592 39.8309 76.1172 38.0674 74.9415 36.2692C74.5611 37.5832 74.2499 38.5515 73.9732 39.5543C73.6966 40.4533 73.3162 40.7646 72.348 40.2113C66.5732 36.7533 60.4526 36.2001 54.0554 38.2057C52.9835 38.5515 51.7732 38.4823 50.6321 38.6206C49.3526 38.7589 48.3152 38.6552 48.1769 36.7188C47.4507 39.5889 45.0993 39.0356 43.3012 39.5197C41.4339 39.9692 39.6358 40.5917 37.976 41.4907C36.9386 42.044 36.4545 41.7674 36.489 40.6262C36.6619 31.9468 40.4311 23.8897 50.2517 20.8813C51.7732 20.4318 52.2573 20.8468 52.1536 22.3682C52.0498 23.7514 52.2227 25.1346 52.5339 26.4832C52.8451 27.901 53.3293 29.2496 54.1937 30.4599C58.205 35.958 64.6368 36.1655 68.4751 30.0103C69.962 27.6243 70.2387 24.8926 70.2732 22.1954C70.3078 20.1897 70.3078 20.1206 72.2443 20.8813C80.5433 24.0626 84.7275 30.3215 85.6957 38.9664C86.249 43.8767 85.6265 48.7178 84.2434 53.4898C83.863 54.458 83.5172 55.53 82.7219 56.7057Z" fill="#1656D9"/>
<path d="M52.0844 77.3496C54.2283 77.9721 55.8881 78.6291 57.6171 78.9403C60.1068 79.3898 62.5619 79.3898 64.9825 78.8711C66.2965 78.5945 67.4377 78.802 68.6479 79.3207C69.9965 79.9085 71.3797 80.4964 72.9704 80.2889C73.005 79.4936 72.3825 79.2515 72.0022 78.8711C70.4807 77.315 70.4807 77.315 72.2442 76.2085C77.2237 73.0272 80.5433 68.601 81.8573 62.8262C82.2031 61.2356 82.791 59.7832 83.448 58.2963C84.0704 56.9131 84.6928 56.0832 86.5256 57.2243C84.2779 55.2533 85.7648 53.4552 86.3181 51.6225C86.8713 49.7552 87.2863 47.8187 87.2863 45.8477C87.2863 44.8795 87.5975 44.3608 88.6349 44.9832C96.4499 49.5823 101.291 57.0169 98.9742 66.8375C98.6284 68.359 98.1789 68.5664 96.8302 67.7019C93.8218 65.8001 90.6059 64.5898 87.0097 65.6272C81.062 67.3216 79.4368 71.6786 81.6498 77.2113C82.8255 80.1506 85.3498 81.845 87.9433 83.401C89.6031 84.3693 89.6377 84.5076 88.0816 85.7179C82.3069 90.3515 75.8751 91.7347 68.7863 89.487C62.3545 87.4468 57.1675 83.5048 52.7414 78.4562C52.603 78.2487 52.4993 78.0066 52.0844 77.3496Z" fill="#1656D9"/>
<path d="M61.0275 72C53.2986 72 47 65.7471 47 58.0277C47 50.3914 53.4086 43.9724 61.0275 44.0001C68.6738 44.0278 75.0274 50.4467 74.9999 58.1107C74.9999 65.7471 68.7013 72 61.0275 72Z" fill="black"/>
</svg>
