<svg width="102" height="102" viewBox="0 0 102 102" fill="none" xmlns="http://www.w3.org/2000/svg">
<g clip-path="url(#clip0_472_3108)">
<path opacity="0.1" d="M78.7005 75.5703C77.7616 71.4145 76.0925 67.5011 73.3455 64.1418C71.7459 62.237 69.9029 60.7825 67.6775 59.9167C67.3645 59.8128 67.0515 59.6742 66.7386 59.605C66.7386 59.605 66.7386 59.605 66.7038 59.6396C66.1474 59.4664 65.5563 59.3279 64.9304 59.224C63.8872 59.0855 63.1917 58.5314 62.8092 57.6656C62.3224 56.5227 61.8008 55.3106 61.5574 54.0985C60.6185 49.2846 60.9315 44.4361 61.4531 39.6223C61.8356 35.9859 62.3224 32.3496 61.9051 28.6786C61.3835 24.3496 60.5142 20.1591 58.3931 16.2803C55.6112 11.1548 51.3689 7.96862 45.527 7.20671C43.4059 6.92965 41.2847 6.99892 39.1635 6.99892C32.5567 6.96429 27.4103 9.59632 23.8634 15.2413C21.2902 19.3626 20.1775 23.934 19.795 28.6786C19.6211 30.9989 19.5168 33.3539 19.7602 35.6742C20.3166 40.9729 20.9425 46.237 20.4556 51.5357C20.247 53.6483 19.9688 55.7262 18.8561 57.5963C18.4736 58.2543 18.0911 58.9123 17.2565 59.1201C17.187 59.1201 17.1174 59.1548 17.0479 59.1548C13.5358 59.6396 10.7887 61.4405 8.56326 64.1071C5.78141 67.4318 4.11231 71.3452 3.20821 75.5357C2.51275 78.5833 3.52116 81.3193 6.26824 83.0855C7.90257 84.1245 9.676 85.0595 11.519 85.6829C15.5179 87.0682 19.6211 87.8647 23.7939 88.3496C23.7939 88.3496 23.7939 88.3496 23.7939 88.3842C24.1068 88.4188 24.385 88.4535 24.698 88.4535C25.9498 88.592 27.2016 88.6959 28.4534 88.7998C29.4966 88.9037 30.5398 88.9729 31.583 89.0422C38.8158 89.4578 46.0486 89.4232 53.2814 88.869C59.0885 88.4535 64.8608 87.6916 70.3898 85.7522C72.2327 85.0942 74.0061 84.1937 75.6405 83.1548C78.3876 81.3539 79.3612 78.6526 78.7005 75.5703Z" fill="#1656D9"/>
<path d="M50.8837 68.5411C50.8142 68.5411 50.7446 68.5065 50.6403 68.5065C49.6319 67.8831 48.6235 67.1559 47.6846 66.3593C46.8848 65.6667 46.1546 64.9394 45.9807 63.7273C47.8932 62.8615 49.458 61.7879 49.7014 59.3983C56.517 65.7013 63.3325 65.8052 70.2175 59.3983C70.4957 61.684 71.9214 62.8615 73.973 63.7619C73.521 64.4892 73.208 65.2165 72.6517 65.7706C69.4873 68.9567 65.5927 70.6537 61.1418 71C60.2029 71.0693 59.264 71.0693 58.3599 71C55.6476 70.6883 53.144 69.8918 50.8837 68.5411ZM42.8859 39.9697C43.0598 39.0347 43.5118 38.7576 44.3464 38.8269C44.9028 37.1299 45.32 35.3983 46.0155 33.8052C46.9544 31.5888 48.5192 29.9264 51.0228 29.4762C51.9617 29.3031 52.8658 29.3723 53.7699 29.8572C60.342 33.2857 66.9836 36.6797 73.5905 40.039C73.8687 40.1775 74.1469 40.316 74.4599 40.4892C75.051 39.9351 75.6421 39.381 76.2333 38.8269C77.4156 39.658 77.6242 42.2554 76.7201 44.5065C76.0246 46.2381 75.4683 46.7922 74.3555 46.6191C74.2164 46.9654 74.0774 47.3463 73.9383 47.7273C72.4082 51.71 70.2523 55.2078 66.9141 57.9437C62.4632 61.5801 57.282 61.5108 52.9006 57.8398C49.6319 55.1039 47.5455 51.6061 46.0155 47.7273C45.8764 47.381 45.7373 47.0347 45.5982 46.6537C44.7984 46.8961 44.2768 46.4805 43.9291 45.8918C42.8164 44.0217 42.4686 42.0476 42.8859 39.9697Z" fill="white"/>
<path d="M97.7905 81.2862C96.8517 77.1303 95.1826 73.2169 92.4355 69.8576C90.8359 67.9529 88.9929 66.4983 86.7675 65.6325C81.7601 64.3511 74.0405 63.6931 74.0405 63.6931C74.0405 63.6931 74.0405 63.6931 74.0058 63.6931C74.0058 63.6931 74.0405 63.6931 74.0405 63.7277C73.5885 64.455 73.2755 65.1823 72.7192 65.7364C69.5548 68.9226 65.6602 70.6195 61.2093 70.9658C60.2704 71.0351 59.3315 71.0351 58.4274 70.9658C55.6804 70.6888 53.1767 69.8922 50.9164 68.5416C50.8469 68.5416 50.7774 68.507 50.673 68.507C49.6646 67.8836 48.6562 67.1563 47.7173 66.3598C46.9523 65.6671 46.1873 64.9399 46.0134 63.7624C45.9787 63.7624 45.9091 63.7624 45.8743 63.7624C41.4582 63.7624 38.8154 64.455 36.4161 64.8706C36.3465 64.8706 36.277 64.9052 36.2074 64.9052C32.6954 65.3901 29.9483 67.1909 27.7228 69.8576C24.941 73.1823 23.2719 77.0957 22.3678 81.2862C21.6723 84.3338 22.6807 87.0697 25.4278 88.836C27.0621 89.8749 28.8355 90.81 30.6785 91.4334C34.6774 92.8187 38.7806 93.6152 42.9534 94.1C42.9534 94.1 42.9534 94.1 42.9534 94.1347C43.2664 94.1693 43.5445 94.2039 43.8575 94.2039C45.1093 94.3425 46.3612 94.4464 47.613 94.5503C48.6562 94.6542 49.6994 94.7234 50.7426 94.7927C57.9754 95.2083 65.2082 95.1736 72.441 94.6195C78.2481 94.2039 84.0204 93.442 89.5493 91.5026C91.3923 90.8446 93.1657 89.9442 94.8 88.9052C97.4776 87.0697 98.4512 84.3338 97.7905 81.2862Z" fill="#1656D9"/>
<path d="M45.979 63.7276C45.979 63.693 45.979 63.693 45.979 63.7276C47.8916 62.8272 49.4563 61.7536 49.6998 59.364C56.5153 65.667 63.3308 65.7709 70.2159 59.364C70.4593 61.6151 71.9197 62.7926 73.9366 63.7276C73.9714 63.7276 73.9714 63.7276 73.9714 63.7276C73.9714 63.7276 81.691 64.3856 86.6983 65.667C86.3853 65.5631 86.0724 65.4246 85.7594 65.3553C85.7594 65.3553 85.7594 65.3553 85.7246 65.39C85.1683 65.2168 84.5771 65.0783 83.9512 64.9744C82.908 64.8359 82.2126 64.2817 81.8301 63.4159C81.3432 62.2731 80.8216 61.061 80.5782 59.8488C79.6394 55.035 79.9523 50.1865 80.4739 45.3727C80.8564 41.7363 81.3432 38.0999 80.926 34.4289C80.4044 30.0999 79.535 25.9094 77.4139 22.0307C74.632 16.9051 70.3897 13.719 64.5479 12.9571C62.4615 12.68 60.3403 12.7493 58.2192 12.7493C51.6123 12.7146 46.4659 15.3467 42.919 20.9917C40.3458 25.1129 39.2331 29.6843 38.8506 34.4289C38.6767 36.7493 38.5724 39.1042 38.8158 41.4246C39.3722 46.7233 39.9981 51.9874 39.5113 57.2861C39.3026 59.3986 39.0244 61.4765 37.9117 63.3467C37.5292 64.0047 37.1467 64.6627 36.3121 64.8705C38.7115 64.4549 41.389 63.7623 45.7704 63.7623C45.8747 63.7276 45.9443 63.7276 45.979 63.7276ZM43.8927 45.8575C42.7799 44.022 42.4322 42.048 42.8495 39.97C43.0233 39.035 43.4754 38.7579 44.3099 38.8272C44.8663 37.1302 45.2836 35.3986 45.979 33.8055C46.9179 31.5891 48.4827 29.9268 50.9864 29.4765C51.9252 29.3034 52.8293 29.3726 53.7334 29.8575C60.3055 33.2861 66.9472 36.68 73.5541 40.0393C73.8323 40.1778 74.1104 40.3164 74.4234 40.4895C75.0145 39.9354 75.6057 39.3813 76.1968 38.8272C77.3791 39.6584 77.5877 42.2558 76.6837 44.5068C75.9882 46.2384 75.4318 46.7926 74.3191 46.6194C74.18 46.9657 74.0409 47.3467 73.9018 47.7276C72.3718 51.7103 70.2159 55.2082 66.8776 57.9441C62.4267 61.5804 57.2455 61.5112 52.8641 57.8402C49.5954 55.1043 47.5091 51.6064 45.979 47.7276C45.8399 47.3813 45.7009 47.035 45.5618 46.654C44.762 46.8618 44.2752 46.4462 43.8927 45.8575Z" fill="black"/>
<path d="M45.8051 50.983C45.0749 49.5977 44.7967 48.0739 44.6924 46.7926C45.1097 46.8964 45.5617 46.9657 46.0486 46.9657H46.1529V34.1519H46.0486C43.2667 34.1519 41.0065 36.4029 41.0065 39.1735V41.9441C41.0065 43.7103 41.9106 45.2341 43.2667 46.1345C43.3363 47.6584 43.6144 49.7363 44.5881 51.6064C46.2572 54.8272 49.4215 56.4549 53.9768 56.4549V55.0696C49.9779 55.1042 47.2308 53.719 45.8051 50.983Z" fill="#1656D9"/>
</g>
<defs>
<clipPath id="clip0_472_3108">
<rect width="95" height="88" fill="white" transform="translate(3 7)"/>
</clipPath>
</defs>
</svg>
