<svg width="103" height="102" viewBox="0 0 103 102" fill="none" xmlns="http://www.w3.org/2000/svg">
<path opacity="0.1" d="M78.375 47V16C78.375 14.9391 77.9536 13.9217 77.2034 13.1716C76.4533 12.4214 75.4359 12 74.375 12H10.375C9.31413 12 8.29672 12.4214 7.54657 13.1716C6.79643 13.9217 6.375 14.9391 6.375 16V54C6.375 55.0609 6.79643 56.0783 7.54657 56.8284C8.29672 57.5786 9.31413 58 10.375 58H14.875C14.555 59.3097 14.3872 60.6519 14.375 62C14.3882 66.7698 16.2889 71.3405 19.6617 74.7133C23.0345 78.0862 27.6052 79.9868 32.375 80C36.7055 79.9782 40.8874 78.4188 44.175 75.6H40.075V62.6C40.075 62.6 43.075 62.51 44.575 62.32C46.4766 62.4475 48.3861 62.3838 50.275 62.13C50.275 60.89 50.155 60.44 50.155 60.13C50.155 58.73 50.075 59.3 49.775 58H74.375C75.4359 58 76.4533 57.5786 77.2034 56.8284C77.9536 56.0783 78.375 55.0609 78.375 54V52H71.375V47H78.375Z" fill="#1656D9"/>
<path d="M92.375 22H28.375C27.3141 22 26.2967 22.4214 25.5466 23.1716C24.7964 23.9217 24.375 24.9391 24.375 26V64C24.375 65.0609 24.7964 66.0783 25.5466 66.8284C26.2967 67.5786 27.3141 68 28.375 68H29.775C30.7193 63.231 33.2891 58.9375 37.0458 55.8517C40.8025 52.766 45.5134 51.0792 50.375 51.0792C55.2366 51.0792 59.9475 52.766 63.7042 55.8517C67.4609 58.9375 70.0307 63.231 70.975 68H92.375C93.4359 68 94.4533 67.5786 95.2034 66.8284C95.9536 66.0783 96.375 65.0609 96.375 64V26C96.375 24.9391 95.9536 23.9217 95.2034 23.1716C94.4533 22.4214 93.4359 22 92.375 22ZM92.375 58H84.375V55H92.375V58ZM92.375 51H72.375V48H92.375V51Z" fill="#1656D9"/>
<path d="M96.375 28H24.375V38H96.375V28Z" fill="#080808"/>
<path d="M50.375 54C46.8149 54 43.3348 55.0557 40.3747 57.0335C37.4147 59.0114 35.1076 61.8226 33.7452 65.1117C32.3828 68.4008 32.0263 72.02 32.7209 75.5116C33.4154 79.0033 35.1297 82.2106 37.6471 84.7279C40.1644 87.2453 43.3717 88.9596 46.8634 89.6541C50.355 90.3487 53.9742 89.9922 57.2633 88.6298C60.5524 87.2675 63.3636 84.9604 65.3415 82.0003C67.3193 79.0402 68.375 75.5601 68.375 72C68.3618 67.2302 66.4612 62.6595 63.0884 59.2867C59.7156 55.9139 55.1448 54.0132 50.375 54ZM41.915 72.54C41.1808 71.4254 40.8297 70.1019 40.915 68.77C40.915 65.42 42.185 63.77 44.705 63.77C45.2512 63.7398 45.7967 63.8423 46.2947 64.0687C46.7927 64.2951 47.2286 64.6386 47.565 65.07C48.2941 66.1682 48.6451 67.4742 48.565 68.79C48.6599 70.1323 48.3084 71.4683 47.565 72.59C47.2244 73.0173 46.7856 73.356 46.2858 73.5771C45.7861 73.7983 45.2403 73.8953 44.695 73.86C44.1594 73.8815 43.6265 73.7727 43.1423 73.5427C42.658 73.3128 42.2369 72.9687 41.915 72.54ZM47.215 80.05H44.575L53.495 64H56.125L47.215 80.05ZM58.845 79C58.5044 79.4273 58.0656 79.766 57.5658 79.9871C57.0661 80.2083 56.5203 80.3053 55.975 80.27C55.4403 80.3015 54.9059 80.2023 54.4181 79.981C53.9302 79.7597 53.5036 79.423 53.175 79C52.4422 77.8885 52.0912 76.5687 52.175 75.24C52.175 71.9067 53.4383 70.24 55.965 70.24C56.5099 70.2089 57.0542 70.311 57.5508 70.5376C58.0473 70.7641 58.4813 71.1081 58.815 71.54C59.5481 72.6364 59.8996 73.9438 59.815 75.26C59.9004 76.5784 59.5604 77.8893 58.845 79Z" fill="#080808"/>
<path d="M55.995 72.47C55.635 72.47 55.365 72.69 55.205 73.14C55.0061 73.8145 54.9216 74.5175 54.955 75.22C54.9231 75.9223 55.0076 76.6252 55.205 77.3C55.365 77.76 55.635 77.99 55.995 77.99C56.705 77.99 57.055 77.06 57.055 75.22C57.055 73.38 56.705 72.47 55.995 72.47Z" fill="#080808"/>
<path d="M45.7949 68.8C45.7949 66.96 45.4449 66.05 44.7449 66.05C44.5556 66.0551 44.3735 66.1241 44.2283 66.2457C44.0831 66.3673 43.9832 66.5345 43.9449 66.72C43.7461 67.3945 43.6616 68.0976 43.6949 68.8C43.6631 69.5024 43.7476 70.2052 43.9449 70.88C44.1049 71.34 44.3749 71.57 44.7449 71.57C45.4449 71.57 45.7949 70.64 45.7949 68.8Z" fill="#080808"/>
</svg>
