<svg width="103" height="102" viewBox="0 0 103 102" fill="none" xmlns="http://www.w3.org/2000/svg">
<g clip-path="url(#clip0_472_2342)">
<g opacity="0.1">
<path d="M47.8157 16C48.7902 16.3631 49.7648 16.6658 50.6785 17.0894C64.2006 23.5655 77.7226 30.0416 91.2447 36.5176C92.2193 37.0018 93.3766 37.365 93.4375 38.757C93.4984 40.2701 92.402 40.7543 91.2447 41.299C77.5399 47.8356 63.8351 54.3722 50.1303 60.9693C48.4857 61.7561 47.1457 61.6956 45.562 60.9088C32.1617 54.4932 18.7006 48.0777 5.23937 41.6622C4.02117 41.0569 2.4375 40.6938 2.37659 38.878C2.31568 37.0018 4.02117 36.7597 5.23937 36.1545C18.3351 29.9205 31.3699 23.6865 44.4656 17.4526C45.5011 16.9079 46.6584 16.4842 47.8157 16Z" fill="#1656D9"/>
<path d="M77.9055 58.6089C79.1846 62.9666 76.6873 65.5086 72.119 67.3849C65.4798 70.1084 59.0842 73.3767 52.6277 76.524C49.5822 77.9766 46.5976 78.0976 43.552 76.7055C35.7555 73.0136 28.0199 69.2611 20.2234 65.6297C18.5179 64.8429 17.8479 63.6929 17.9088 61.8772C18.0306 59.1536 17.9088 56.43 17.9697 53.7065C18.0306 50.6803 18.2743 50.4987 21.1371 51.8907C29.1772 55.7037 37.2783 59.4562 45.2575 63.3903C47.1458 64.3587 48.7294 64.3587 50.6176 63.3903C58.536 59.5168 66.4543 55.7037 74.4336 51.9513C77.6618 50.4382 77.9055 50.6197 77.9664 54.2512C77.9055 55.4616 77.9055 56.6721 77.9055 58.6089Z" fill="#1656D9"/>
<path d="M88.8082 59.3352C89.0519 64.8428 88.0164 70.8347 90.5746 76.524C91.2446 77.9765 88.4428 82.3948 86.8591 82.879C86.1282 83.1211 85.5191 82.879 84.91 82.3948C82.2299 80.2159 81.4381 77.795 82.6563 74.4661C83.509 72.1662 83.8136 69.8058 83.8136 67.3848C83.7527 61.8772 83.8136 56.309 83.8136 50.8013C83.8136 50.0145 83.7527 49.1671 83.9354 48.3803C84.4227 46.5041 86.1282 45.7778 87.6509 45.8383C89.4173 45.8383 88.7473 47.654 88.7473 48.7435C88.8691 52.1328 88.8082 55.5221 88.8082 59.3352Z" fill="#1656D9"/>
</g>
<path d="M59.7668 24C60.676 24.3388 61.5852 24.6211 62.4375 25.0163C75.0523 31.0579 87.6671 37.0994 100.282 43.141C101.191 43.5927 102.271 43.9315 102.328 45.2301C102.384 46.6417 101.362 47.0934 100.282 47.6016C87.4967 53.6996 74.7114 59.7976 61.9261 65.952C60.3919 66.6861 59.1418 66.6296 57.6643 65.8956C45.1632 59.9105 32.6052 53.9254 20.0472 47.9403C18.9107 47.3757 17.4333 47.0369 17.3765 45.343C17.3197 43.5927 18.9107 43.3668 20.0472 42.8022C32.2642 36.9865 44.4245 31.1708 56.6415 25.3551C57.6075 24.8469 58.6872 24.4517 59.7668 24Z" fill="#1656D9"/>
<path d="M87.8377 75.7247C87.8377 81.2206 86.7012 82.1615 82.4395 83.9119C76.2457 86.4527 70.2792 89.5017 64.256 92.4378C61.4148 93.7929 58.6304 93.9058 55.7893 92.6072C48.5158 89.1629 41.2993 85.6622 34.0259 82.2744C32.4348 81.5404 31.8097 80.4676 31.8666 78.7737C31.9802 76.2329 31.8664 64.4646 31.9233 61.9238C31.9801 59.1006 32.2074 58.9312 34.8781 60.2299C42.3788 63.787 49.9363 67.2878 57.3802 70.9579C59.1417 71.8613 60.6191 71.8613 62.3807 70.9579C69.7677 67.3442 77.1548 63.787 84.5986 60.2863C87.6103 58.8748 87.8376 59.0442 87.8944 62.4319C87.8376 63.5612 87.8377 70.2289 87.8377 75.7247Z" fill="#1656D9"/>
<path d="M98.009 64.4276C98.2363 69.5657 97.2703 75.1556 99.6568 80.4631C100.282 81.8182 97.668 85.94 96.1906 86.3917C95.5087 86.6175 94.9405 86.3917 94.3723 85.94C91.872 83.9073 91.1333 81.6488 92.2698 78.5433C93.0653 76.3977 93.3494 74.1957 93.3494 71.9372C93.2926 66.799 93.3494 61.6044 93.3494 56.4663C93.3494 55.7323 93.2926 54.9418 93.4631 54.2078C93.9177 52.4574 95.5087 51.7798 96.9293 51.8363C98.5772 51.8363 97.9521 53.5302 97.9521 54.5465C98.0658 57.7085 98.009 60.8704 98.009 64.4276Z" fill="black"/>
</g>
<defs>
<clipPath id="clip0_472_2342">
<rect width="102" height="102" fill="white" transform="translate(0.375)"/>
</clipPath>
</defs>
</svg>
