<svg width="102" height="102" viewBox="0 0 102 102" fill="none" xmlns="http://www.w3.org/2000/svg">
<path d="M58.0396 7.17847H23.6693C19.6979 7.17847 16.467 10.4093 16.467 14.3805V81.2676C16.467 85.2388 19.6981 88.4697 23.6693 88.4697H58.0396C62.0108 88.4697 65.2419 85.2388 65.2419 81.2676V14.3805C65.2419 10.4093 62.0108 7.17847 58.0396 7.17847Z" fill="#0644C5" fill-opacity="0.1"/>
<path d="M70.7979 13.5294H36.4276C32.4562 13.5294 29.2253 16.7602 29.2253 20.7314V87.6185C29.2253 91.5897 32.4564 94.8206 36.4276 94.8206H70.7979C74.7691 94.8206 78.0002 91.5897 78.0002 87.6185V20.7314C78.0002 16.7602 74.7691 13.5294 70.7979 13.5294Z" fill="#0644C5"/>
<path d="M70.5164 18.2925H67.7961V21.0128C67.7961 25.1458 64.4457 28.4962 60.3127 28.4962H46.9123C42.7793 28.4962 39.4289 25.1458 39.4289 21.0128V18.2925H36.7087C35.2088 18.2925 33.9883 19.5128 33.9883 21.0128V87.3372C33.9883 88.8371 35.2088 90.0574 36.7087 90.0574H70.5164C72.0163 90.0574 73.2368 88.8371 73.2368 87.3372V21.0128C73.2368 19.5128 72.0163 18.2925 70.5164 18.2925Z" fill="white"/>
<path d="M67.7962 18.2925H70.5164C72.0163 18.2925 73.2368 19.5128 73.2368 21.0128V87.3372C73.2368 88.8371 72.0163 90.0574 70.5164 90.0574H36.7087C35.2088 90.0574 34.1841 88.8371 34.1841 87.3372L60.3127 28.4962C64.4457 28.4962 67.7962 25.1458 67.7962 21.0128V18.2925Z" fill="black"/>
</svg>
