<svg width="8" height="18" viewBox="0 0 8 18" fill="none" xmlns="http://www.w3.org/2000/svg">
<g clip-path="url(#clip0_2_1160)">
<path d="M3.68625 9.5795C3.46395 9.57972 3.2436 9.53814 3.03666 9.45694C2.80967 9.35542 2.59999 9.21895 2.41527 9.05248C1.9385 8.66561 1.53037 8.20112 1.20803 7.67856C0.861177 7.12335 0.776608 6.66864 0.696943 6.08524C0.57438 5.20279 0.819505 3.84479 0.904073 3.39866C0.944519 3.17928 0.98374 2.95989 1.02664 2.74418L1.06831 2.51131H6.30173L6.34341 2.74418C6.3814 2.95866 6.42062 3.17805 6.45984 3.39744C6.54196 3.84357 6.79076 5.20156 6.6682 6.08524C6.58853 6.66741 6.50396 7.12212 6.15711 7.67856C5.83477 8.20112 5.42664 8.66561 4.94987 9.05248C4.76444 9.21743 4.55541 9.35376 4.3297 9.45694C4.12542 9.53989 3.90672 9.58154 3.68625 9.5795Z" fill="white"/>
<path d="M7.11176 3.31287C6.8887 2.08724 6.68647 0.861615 6.61048 0.382394C6.59375 0.275343 6.53913 0.177857 6.45658 0.107676C6.37403 0.0374961 6.26903 -0.000714528 6.16068 -1.64645e-06H1.19689C1.08854 -0.000714528 0.983532 0.0374961 0.90098 0.107676C0.818428 0.177857 0.763816 0.275343 0.747081 0.382394C0.669867 0.860389 0.467639 2.09827 0.2458 3.31287C0.0987249 4.11565 -0.0814426 5.28368 0.0386689 6.15877C0.123237 6.77159 0.227415 7.33538 0.641677 7.99721C0.997925 8.57311 1.44778 9.08551 1.97271 9.51332C2.19366 9.69361 2.43271 9.85052 2.68602 9.98151C2.8051 10.0395 2.91733 10.1106 3.02062 10.1935C3.05848 10.2274 3.08891 10.2687 3.11001 10.3149C3.1311 10.3611 3.1424 10.4112 3.14318 10.462C3.14318 10.4791 3.28413 12.1398 3.28413 13.5591C3.28413 14.6891 3.17627 16.0006 3.16157 16.1145C3.14947 16.2202 3.12308 16.3237 3.08313 16.4222C3.00525 16.5113 2.91021 16.5838 2.80368 16.6354C2.56333 16.7141 2.31755 16.7751 2.06831 16.8181L1.82318 16.8695C1.66385 16.9051 1.37338 16.9615 1.15889 17.0031C0.967693 17.0387 0.830424 17.1527 0.830424 17.3475C0.830404 17.4131 0.856033 17.4761 0.901835 17.5231C0.947637 17.57 1.00998 17.5972 1.07555 17.5988H6.28446C6.3511 17.5988 6.41501 17.5723 6.46213 17.5252C6.50925 17.4781 6.53572 17.4142 6.53572 17.3475C6.53437 17.2595 6.49997 17.1752 6.43934 17.1114C6.37871 17.0476 6.2963 17.009 6.20848 17.0031C5.99277 16.9615 5.70229 16.9051 5.54296 16.8695L5.29783 16.8181C5.04856 16.7753 4.80277 16.7143 4.56246 16.6354C4.45593 16.5838 4.3609 16.5113 4.28302 16.4222C4.24306 16.3237 4.21667 16.2202 4.20458 16.1145C4.18497 16.0006 4.08201 14.6891 4.08201 13.5591C4.08201 12.1398 4.22051 10.4791 4.22296 10.4558C4.23126 10.3566 4.27472 10.2636 4.34552 10.1935C4.44748 10.1088 4.55994 10.0375 4.68012 9.98151C4.93351 9.85017 5.17257 9.69285 5.39343 9.51209C5.91861 9.08502 6.36851 8.57297 6.72446 7.99721C7.13873 7.33415 7.2429 6.77159 7.32747 6.15877C7.44023 5.2849 7.26006 4.11565 7.11176 3.31287ZM6.17048 17.1526C6.20754 17.1526 6.24308 17.1674 6.26928 17.1936C6.29548 17.2198 6.3102 17.2553 6.3102 17.2924C6.3102 17.3294 6.29548 17.365 6.26928 17.3912C6.24308 17.4174 6.20754 17.4321 6.17048 17.4321H1.22875C1.1917 17.4321 1.15616 17.4174 1.12995 17.3912C1.10375 17.365 1.08903 17.3294 1.08903 17.2924C1.08903 17.2553 1.10375 17.2198 1.12995 17.1936C1.15616 17.1674 1.1917 17.1526 1.22875 17.1526H6.17048ZM6.95488 6.12201C6.87031 6.73482 6.78084 7.22507 6.40213 7.83053C6.06326 8.38026 5.63397 8.8688 5.13238 9.27555C4.9248 9.46034 4.68999 9.61205 4.43622 9.72535C4.40803 9.73638 4.32346 9.77805 4.31366 9.78173C4.18503 9.83732 4.07401 9.92696 3.99259 10.041C3.91116 10.155 3.86241 10.2892 3.85159 10.4289C3.79522 10.9902 3.77806 12.1239 3.77806 13.5567C3.77806 14.6781 3.85527 15.7836 3.85527 15.9417C3.85527 16.2567 3.50474 16.2604 3.50474 15.9417C3.50474 15.7836 3.58318 14.6781 3.58318 13.5567C3.58318 12.1239 3.49494 10.9755 3.49494 10.4338C3.49494 10.0109 3.16524 9.83688 2.95811 9.74619L2.92747 9.72657C2.67151 9.61405 2.43491 9.46184 2.22641 9.27555C1.72449 8.86914 1.29515 8.38054 0.956663 7.83053C0.577945 7.22507 0.488474 6.74095 0.40268 6.12201C0.280118 5.19298 0.525243 3.79331 0.613488 3.34106C0.808363 2.27599 0.98853 1.19131 1.078 0.644679L1.1307 0.32479H6.22931L6.28201 0.644679C6.39355 1.3249 6.56391 2.34462 6.74653 3.34106C6.82987 3.80189 7.0848 5.19421 6.95611 6.12568L6.95488 6.12201Z" fill="white"/>
</g>
<defs>
<clipPath id="clip0_2_1160">
<rect width="7.35867" height="17.6" fill="white" transform="translate(0.000793457)"/>
</clipPath>
</defs>
</svg>
