<svg width="208" height="31" viewBox="0 0 208 31" fill="none" xmlns="http://www.w3.org/2000/svg">
<path d="M0 0.453369H8.59478V29.8805H0V0.453369Z" fill="white"/>
<path d="M12.7139 0.453369H20.0275L31.1401 16.0026V0.453369H39.7349V29.8805H32.3768L21.3532 14.349V29.8805H12.7139V0.453369Z" fill="white"/>
<path d="M41.5674 0.453369H50.5269L57.3868 19.9233L64.2466 0.453369H73.2595L61.96 29.8805H52.867L41.5674 0.453369Z" fill="white"/>
<path d="M75.0234 0.453369H97.3379V7.03225H83.636V11.833H95.6473V18.5097H83.636V23.3016H97.3379V29.8805H75.0234V0.453369Z" fill="white"/>
<path d="M104.099 29.8627C102.563 29.6066 101.068 29.1523 99.65 28.5114V21.3992C101.136 22.0618 102.682 22.5798 104.268 22.9461C105.796 23.3261 107.364 23.526 108.939 23.5417C110.141 23.6073 111.346 23.4598 112.498 23.1061C112.839 22.9776 113.128 22.7414 113.323 22.4332C113.517 22.1251 113.605 21.762 113.574 21.3992C113.583 21.1501 113.541 20.902 113.45 20.6696C113.36 20.4374 113.224 20.2258 113.049 20.0478C112.601 19.6509 112.078 19.3486 111.51 19.1588C110.843 18.901 109.73 18.5453 108.316 18.083C107.912 18.0108 107.513 17.9097 107.124 17.7808C105.458 17.2989 103.866 16.5931 102.39 15.6826C101.327 15.009 100.473 14.0512 99.9258 12.9177C99.3816 11.6405 99.1235 10.2599 99.1694 8.87259C99.1002 7.59499 99.352 6.32038 99.9022 5.16502C100.452 4.00964 101.283 3.01031 102.319 2.25816C104.365 0.752718 107.4 0 111.421 0C113.069 0.00870122 114.713 0.139451 116.341 0.391176C117.788 0.587713 119.216 0.899877 120.612 1.32466V8.43697C118.134 7.41089 115.482 6.86772 112.8 6.83669C111.576 6.79453 110.352 6.91713 109.161 7.2012C108.801 7.27918 108.481 7.48352 108.259 7.77714C108.037 8.07076 107.928 8.4342 107.951 8.80148C107.941 9.03106 107.98 9.26014 108.066 9.4733C108.152 9.68646 108.283 9.87875 108.449 10.0372C108.902 10.4013 109.422 10.6731 109.98 10.8374C110.674 11.0596 111.839 11.3886 113.485 11.8153C115.409 12.2748 117.241 13.0563 118.904 14.1268C120.069 14.8804 120.995 15.9507 121.573 17.2117C122.094 18.551 122.342 19.9806 122.302 21.417C122.345 22.6784 122.078 23.9312 121.524 25.0657C120.971 26.2001 120.147 27.1817 119.126 27.9247C117.009 29.5249 113.892 30.3251 109.775 30.3251C107.873 30.3409 105.973 30.1861 104.099 29.8627Z" fill="white"/>
<path d="M130.79 6.85444H122.516V0.453369H147.668V6.85444H139.394V29.8805H130.79V6.85444Z" fill="white"/>
<path d="M170.321 0.462402V6.85458H158.522V11.931H170.321V18.412H158.522V29.8806H149.928V0.462402H170.321Z" fill="#27B9F2"/>
<path d="M208 0.462238L201.193 29.8805H193.417L188.978 14.669L184.181 29.8805H176.405L173.113 15.7625L179.796 9.43262L172.063 2.10695L170.329 0.462238H177.962L181.299 16.0382L185.89 0.444458L191.584 0.462238L196.069 16.0827L199.592 0.462238H208Z" fill="#27B9F2"/>
</svg>
