<svg class="footer-address__logo" xmlns="http://www.w3.org/2000/svg" viewBox="0 0 233.78 34.13"><defs><style>.cls-1{fill:#27b9f2;}.cls-2{fill:#fff;}</style></defs><g id="Layer_2" data-name="Layer 2"><g id="Layer_1-2" data-name="Layer 1"><path class="cls-1" d="M0,.51H9.66v33.1H0Z"></path><path class="cls-1" d="M14.29.51h8.22L35,18V.51h9.66v33.1H36.39L24,16.14V33.61H14.29Z"></path><path class="cls-1" d="M46.72.51H56.79l7.71,21.9L72.21.51H82.34l-12.7,33.1H59.42Z"></path><path class="cls-1" d="M84.32.51H109.4v7.4H94v5.4H107.5v7.51H94v5.39H109.4v7.4H84.32Z"></path><path class="cls-1" d="M117,33.59a20.21,20.21,0,0,1-5-1.52v-8a28.47,28.47,0,0,0,5.19,1.74,22.68,22.68,0,0,0,5.25.67,11.48,11.48,0,0,0,4-.49,1.88,1.88,0,0,0,1.21-1.92,2.07,2.07,0,0,0-.59-1.52,5,5,0,0,0-1.73-1c-.75-.29-2-.69-3.59-1.21A9.69,9.69,0,0,1,120.4,20a21.51,21.51,0,0,1-5.32-2.36,7.58,7.58,0,0,1-2.77-3.11,10.71,10.71,0,0,1-.85-4.55A8.62,8.62,0,0,1,115,2.54Q118.45,0,125.23,0a37.46,37.46,0,0,1,5.53.44,30.67,30.67,0,0,1,4.8,1.05v8a23.65,23.65,0,0,0-8.78-1.8,15.34,15.34,0,0,0-4.09.41,1.73,1.73,0,0,0-1.36,1.8,1.81,1.81,0,0,0,.56,1.39,5,5,0,0,0,1.72.9c.78.25,2.09.62,3.94,1.1a19.7,19.7,0,0,1,6.09,2.6,8.2,8.2,0,0,1,3,3.47,12.14,12.14,0,0,1,.82,4.73,8.69,8.69,0,0,1-3.57,7.32q-3.57,2.7-10.51,2.7A35.75,35.75,0,0,1,117,33.59Z"></path><path class="cls-1" d="M147,7.71h-9.3V.51h28.27v7.2h-9.3v25.9H147Z"></path><polygon class="cls-2" points="191.43 0.52 191.43 7.71 178.17 7.71 178.17 13.42 191.43 13.42 191.43 20.71 178.17 20.71 178.17 33.61 168.51 33.61 168.51 0.52 191.43 0.52"></polygon><polygon class="cls-2" points="233.78 0.52 226.13 33.61 217.39 33.61 212.4 16.5 207.01 33.61 198.27 33.61 194.57 17.73 202.08 10.61 193.39 2.37 191.44 0.52 200.02 0.52 203.77 18.04 208.93 0.5 215.33 0.52 220.37 18.09 224.33 0.52 233.78 0.52"></polygon></g></g></svg>