<?xml version="1.0" encoding="UTF-8"?>
<svg xmlns="http://www.w3.org/2000/svg" xmlns:xlink="http://www.w3.org/1999/xlink" width="18px" height="18px" viewBox="0 0 18 18" version="1.1">
<g id="surface1">
<path style=" stroke:none;fill-rule:nonzero;fill:rgb(0%,0%,0%);fill-opacity:1;" d="M 0.00390625 3.328125 C 0.0078125 5.164062 0.015625 6.613281 0.0195312 6.554688 C 0.0859375 6.003906 0.128906 5.753906 0.226562 5.359375 C 0.867188 2.847656 2.847656 0.867188 5.359375 0.226562 C 5.753906 0.128906 6.003906 0.0859375 6.554688 0.0195312 C 6.617188 0.015625 5.164062 0.0078125 3.332031 0.00390625 L 0 0 Z M 0.00390625 3.328125 "/>
<path style=" stroke:none;fill-rule:nonzero;fill:rgb(0%,0%,0%);fill-opacity:1;" d="M 7.859375 0.0390625 C 9.824219 0.246094 11.648438 1.28125 12.820312 2.863281 C 13.761719 4.121094 14.238281 5.5625 14.238281 7.128906 C 14.238281 8.75 13.789062 10.054688 12.710938 11.550781 C 12.679688 11.589844 13.273438 12.199219 15.265625 14.191406 C 17.261719 16.191406 17.875 16.820312 17.925781 16.945312 L 18 17.101562 L 18 0 L 12.789062 0.00390625 C 9.742188 0.0078125 7.691406 0.0195312 7.859375 0.0390625 Z M 7.859375 0.0390625 "/>
<path style=" stroke:none;fill-rule:nonzero;fill:rgb(0%,0%,0%);fill-opacity:1;" d="M 6.433594 1.535156 C 6.179688 1.566406 5.496094 1.734375 5.257812 1.816406 C 3.882812 2.3125 2.675781 3.398438 2.058594 4.6875 C 1.699219 5.445312 1.542969 6.085938 1.519531 6.925781 C 1.5 7.574219 1.539062 7.949219 1.671875 8.488281 C 1.988281 9.757812 2.78125 10.921875 3.839844 11.683594 C 4.207031 11.945312 4.9375 12.320312 5.359375 12.460938 C 7.117188 13.046875 9.082031 12.710938 10.558594 11.578125 C 12.4375 10.128906 13.210938 7.605469 12.460938 5.355469 C 11.828125 3.460938 10.253906 2.058594 8.242188 1.609375 C 8 1.558594 7.769531 1.539062 7.242188 1.53125 C 6.867188 1.523438 6.5 1.527344 6.433594 1.535156 Z M 6.433594 1.535156 "/>
<path style=" stroke:none;fill-rule:nonzero;fill:rgb(0%,0%,0%);fill-opacity:1;" d="M 0.00390625 12.785156 L 0 18 L 17.101562 18 L 16.945312 17.925781 C 16.820312 17.875 16.191406 17.265625 14.203125 15.273438 C 12.78125 13.855469 11.605469 12.691406 11.589844 12.691406 C 11.574219 12.691406 11.46875 12.761719 11.359375 12.847656 C 10.835938 13.25 10.039062 13.660156 9.347656 13.890625 C 8.601562 14.132812 7.941406 14.238281 7.128906 14.238281 C 5.296875 14.238281 3.574219 13.554688 2.238281 12.304688 C 1.03125 11.171875 0.210938 9.515625 0.0390625 7.859375 C 0.0195312 7.695312 0.0078125 9.785156 0.00390625 12.785156 Z M 0.00390625 12.785156 "/>
<path style=" stroke:none;fill-rule:nonzero;fill:rgb(0%,0%,0%);fill-opacity:1;" d="M 17.945312 17.511719 C 17.914062 17.652344 17.664062 17.902344 17.507812 17.953125 C 17.394531 17.988281 17.414062 17.992188 17.695312 17.996094 L 18 18 L 18 17.703125 C 18 17.535156 17.992188 17.402344 17.984375 17.402344 C 17.976562 17.402344 17.957031 17.453125 17.945312 17.511719 Z M 17.945312 17.511719 "/>
</g>
</svg>
