<?xml version="1.0" encoding="UTF-8"?>
<svg xmlns="http://www.w3.org/2000/svg" xmlns:xlink="http://www.w3.org/1999/xlink" width="11px" height="11px" viewBox="0 0 11 11" version="1.1">
<g id="surface1">
<path style=" stroke:none;fill-rule:nonzero;fill:rgb(0%,0%,0%);fill-opacity:1;" d="M 0.8125 2.414062 C 0.472656 2.539062 0.21875 2.8125 0.175781 3.121094 C 0.164062 3.207031 0.15625 4.320312 0.164062 5.597656 C 0.175781 7.890625 0.175781 7.917969 0.261719 8.078125 C 0.378906 8.285156 0.628906 8.507812 0.8125 8.5625 C 0.917969 8.597656 2.292969 8.605469 5.582031 8.597656 L 10.203125 8.582031 L 10.394531 8.464844 C 10.511719 8.390625 10.628906 8.273438 10.707031 8.15625 L 10.824219 7.964844 L 10.835938 5.570312 C 10.84375 3.90625 10.832031 3.128906 10.800781 3.011719 C 10.746094 2.796875 10.414062 2.472656 10.191406 2.402344 C 9.941406 2.328125 1.019531 2.335938 0.8125 2.414062 Z M 10.214844 2.777344 C 10.355469 2.863281 10.488281 3.046875 10.488281 3.15625 C 10.488281 3.191406 9.644531 3.609375 8.078125 4.351562 C 6.75 4.980469 5.617188 5.507812 5.566406 5.519531 C 5.503906 5.535156 5.378906 5.503906 5.203125 5.429688 C 4.902344 5.300781 0.542969 3.226562 0.515625 3.203125 C 0.484375 3.167969 0.597656 2.949219 0.699219 2.855469 C 0.757812 2.800781 0.867188 2.738281 0.941406 2.71875 C 1.035156 2.691406 2.679688 2.679688 5.578125 2.683594 L 10.078125 2.691406 Z M 3.082031 4.792969 C 5.386719 5.894531 5.464844 5.925781 5.761719 5.800781 C 5.847656 5.769531 6.941406 5.257812 8.203125 4.660156 C 9.464844 4.0625 10.5 3.574219 10.507812 3.574219 C 10.519531 3.574219 10.527344 4.519531 10.527344 5.664062 C 10.527344 7.621094 10.519531 7.769531 10.453125 7.921875 C 10.414062 8.011719 10.320312 8.125 10.25 8.175781 L 10.117188 8.269531 L 5.558594 8.28125 L 1 8.289062 L 0.828125 8.203125 C 0.5 8.035156 0.511719 8.132812 0.511719 5.707031 L 0.511719 3.574219 L 0.71875 3.667969 C 0.828125 3.71875 1.898438 4.226562 3.082031 4.792969 Z M 3.082031 4.792969 "/>
</g>
</svg>
