<?xml version="1.0" encoding="UTF-8"?>
<svg xmlns="http://www.w3.org/2000/svg" xmlns:xlink="http://www.w3.org/1999/xlink" width="12px" height="12px" viewBox="0 0 12 12" version="1.1">
<g id="surface1">
<path style=" stroke:none;fill-rule:nonzero;fill:rgb(0%,0%,0%);fill-opacity:1;" d="M 0 1 C 0 1.949219 0.351562 2 6 2 C 11.648438 2 12 1.949219 12 1 C 12 0.0507812 11.648438 0 6 0 C 0.351562 0 0 0.0507812 0 1 Z M 0 1 "/>
<path style=" stroke:none;fill-rule:nonzero;fill:rgb(0%,0%,0%);fill-opacity:1;" d="M 3.648438 4.851562 L 6 7.25 L 8.351562 4.851562 L 10.75 2.5 L 1.25 2.5 Z M 3.648438 4.851562 "/>
<path style=" stroke:none;fill-rule:nonzero;fill:rgb(0%,0%,0%);fill-opacity:1;" d="M 0.5 6 C 0.5 7.351562 0.699219 8.5 0.898438 8.5 C 1.148438 8.5 1.851562 7.949219 2.5 7.25 L 3.648438 6 L 2.5 4.75 C 1.851562 4.050781 1.148438 3.5 0.898438 3.5 C 0.699219 3.5 0.5 4.601562 0.5 6 Z M 0.5 6 "/>
<path style=" stroke:none;fill-rule:nonzero;fill:rgb(0%,0%,0%);fill-opacity:1;" d="M 9.5 4.75 L 8.351562 6 L 9.5 7.25 C 10.148438 7.949219 10.851562 8.5 11.101562 8.5 C 11.300781 8.5 11.5 7.351562 11.5 6 C 11.5 4.601562 11.300781 3.5 11.101562 3.5 C 10.851562 3.5 10.148438 4.050781 9.5 4.75 Z M 9.5 4.75 "/>
<path style=" stroke:none;fill-rule:nonzero;fill:rgb(0%,0%,0%);fill-opacity:1;" d="M 2.699219 8.050781 L 1.300781 9.5 L 10.699219 9.5 L 9.300781 8.050781 C 8.101562 6.800781 7.75 6.648438 6.949219 7.148438 C 6.199219 7.601562 5.800781 7.601562 5.050781 7.148438 C 4.25 6.648438 3.898438 6.800781 2.699219 8.050781 Z M 2.699219 8.050781 "/>
<path style=" stroke:none;fill-rule:nonzero;fill:rgb(0%,0%,0%);fill-opacity:1;" d="M 0 11 C 0 11.949219 0.351562 12 6 12 C 11.648438 12 12 11.949219 12 11 C 12 10.050781 11.648438 10 6 10 C 0.351562 10 0 10.050781 0 11 Z M 0 11 "/>
</g>
</svg>
