<?xml version="1.0" encoding="UTF-8"?>
<svg xmlns="http://www.w3.org/2000/svg" xmlns:xlink="http://www.w3.org/1999/xlink" width="54px" height="54px" viewBox="0 0 54 54" version="1.1">
<g id="surface1">
<path style=" stroke:none;fill-rule:nonzero;fill:#151515;fill-opacity:1;" d="M 0 27 L 0 54 L 54 54 L 54 0 L 0 0 Z M 46.046875 13.023438 C 46.363281 13.226562 46.679688 13.542969 46.882812 13.859375 C 47.164062 14.324219 47.195312 14.46875 47.195312 15.1875 C 47.195312 15.90625 47.164062 16.050781 46.882812 16.515625 C 46.679688 16.832031 46.363281 17.148438 46.046875 17.351562 L 45.53125 17.664062 L 8.46875 17.664062 L 7.953125 17.351562 C 7.636719 17.148438 7.320312 16.832031 7.121094 16.515625 C 6.84375 16.050781 6.804688 15.90625 6.804688 15.199219 C 6.804688 14.511719 6.84375 14.324219 7.097656 13.902344 C 7.414062 13.363281 7.835938 13.015625 8.425781 12.804688 C 8.734375 12.6875 12.339844 12.667969 27.167969 12.6875 L 45.53125 12.710938 Z M 46.046875 24.835938 C 46.363281 25.039062 46.679688 25.355469 46.882812 25.671875 C 47.164062 26.136719 47.195312 26.28125 47.195312 27 C 47.195312 27.71875 47.164062 27.863281 46.882812 28.328125 C 46.679688 28.644531 46.363281 28.960938 46.046875 29.164062 L 45.53125 29.476562 L 8.46875 29.476562 L 7.953125 29.164062 C 7.636719 28.960938 7.320312 28.644531 7.121094 28.328125 C 6.84375 27.863281 6.804688 27.71875 6.804688 27.011719 C 6.804688 26.324219 6.84375 26.136719 7.097656 25.714844 C 7.414062 25.175781 7.835938 24.828125 8.425781 24.617188 C 8.734375 24.5 12.339844 24.480469 27.167969 24.5 L 45.53125 24.519531 Z M 46.046875 36.648438 C 46.363281 36.851562 46.679688 37.167969 46.882812 37.484375 C 47.164062 37.949219 47.195312 38.09375 47.195312 38.8125 C 47.195312 39.53125 47.164062 39.675781 46.882812 40.140625 C 46.679688 40.457031 46.363281 40.773438 46.046875 40.976562 L 45.53125 41.289062 L 8.46875 41.289062 L 7.953125 40.976562 C 7.636719 40.773438 7.320312 40.457031 7.121094 40.140625 C 6.84375 39.675781 6.804688 39.53125 6.804688 38.824219 C 6.804688 38.136719 6.84375 37.949219 7.097656 37.527344 C 7.414062 36.988281 7.835938 36.640625 8.425781 36.429688 C 8.734375 36.3125 12.339844 36.292969 27.167969 36.3125 L 45.53125 36.335938 Z M 46.046875 36.648438 "/>
</g>
</svg>
