<svg width="17" height="15" viewBox="0 0 17 15" fill="none" xmlns="http://www.w3.org/2000/svg">
<g clip-path="url(#clip0_2_1156)">
<path d="M15.8667 2.15H12.6766C12.5767 2.14987 12.4786 2.12342 12.3922 2.0733C12.3058 2.02318 12.2342 1.95118 12.1845 1.86454L11.5406 0.737821C11.4414 0.564493 11.2981 0.420418 11.1254 0.320137C10.9526 0.219857 10.7565 0.166919 10.5568 0.166668H6.44324C6.24349 0.166919 6.04735 0.219857 5.87461 0.320137C5.70186 0.420418 5.55863 0.564493 5.45936 0.737821L4.81667 1.86454C4.76688 1.95135 4.69505 2.02347 4.60843 2.0736C4.52182 2.12372 4.4235 2.15008 4.32343 2.15H3.96667V1.58333C3.96667 1.43305 3.90696 1.28891 3.80069 1.18264C3.69442 1.07637 3.55029 1.01667 3.4 1.01667H2.26667C2.11638 1.01667 1.97224 1.07637 1.86597 1.18264C1.7597 1.28891 1.7 1.43305 1.7 1.58333V2.15H1.13333C0.832851 2.15031 0.544764 2.26982 0.332291 2.48229C0.119817 2.69477 0.000312515 2.98285 0 3.28333V13.2C0.000312515 13.5005 0.119817 13.7886 0.332291 14.001C0.544764 14.2135 0.832851 14.333 1.13333 14.3333H15.8667C16.1672 14.333 16.4552 14.2135 16.6677 14.001C16.8802 13.7886 16.9997 13.5005 17 13.2V3.28333C16.9997 2.98285 16.8802 2.69477 16.6677 2.48229C16.4552 2.26982 16.1672 2.15031 15.8667 2.15ZM2.26667 1.58333H3.4V2.15H2.26667V1.58333ZM16.4333 13.2C16.4333 13.3503 16.3736 13.4944 16.2674 13.6007C16.1611 13.707 16.017 13.7667 15.8667 13.7667H1.13333C0.983044 13.7667 0.83891 13.707 0.73264 13.6007C0.626369 13.4944 0.566667 13.3503 0.566667 13.2V3.28333C0.566667 3.13305 0.626369 2.98891 0.73264 2.88264C0.83891 2.77637 0.983044 2.71667 1.13333 2.71667H4.32343C4.52317 2.71642 4.71931 2.66348 4.89206 2.5632C5.0648 2.46292 5.20804 2.31884 5.30731 2.14552L5.95118 1.01879C6.00087 0.932158 6.07252 0.860152 6.1589 0.810036C6.24529 0.75992 6.34336 0.733464 6.44324 0.733335H10.5568C10.6568 0.733256 10.7552 0.759614 10.8418 0.809741C10.9284 0.859868 11.0002 0.931984 11.05 1.01879L11.6939 2.14552C11.793 2.31867 11.9361 2.46263 12.1086 2.5629C12.2811 2.66317 12.477 2.71621 12.6766 2.71667H15.8667C16.017 2.71667 16.1611 2.77637 16.2674 2.88264C16.3736 2.98891 16.4333 3.13305 16.4333 3.28333V13.2Z" fill="white"/>
<path d="M14.7333 3.28333C14.5652 3.28333 14.4008 3.33318 14.2611 3.42658C14.1213 3.51998 14.0123 3.65273 13.948 3.80805C13.8837 3.96337 13.8668 4.13428 13.8996 4.29916C13.9324 4.46404 14.0134 4.6155 14.1323 4.73437C14.2511 4.85325 14.4026 4.9342 14.5675 4.967C14.7324 4.9998 14.9033 4.98297 15.0586 4.91863C15.2139 4.8543 15.3467 4.74535 15.4401 4.60557C15.5335 4.46579 15.5833 4.30145 15.5833 4.13333C15.5833 3.9079 15.4937 3.6917 15.3343 3.53229C15.1749 3.37289 14.9587 3.28333 14.7333 3.28333ZM14.7333 4.41667C14.6773 4.41667 14.6225 4.40005 14.5759 4.36892C14.5293 4.33778 14.493 4.29353 14.4715 4.24176C14.4501 4.18999 14.4445 4.13302 14.4554 4.07806C14.4663 4.0231 14.4933 3.97261 14.533 3.93299C14.5726 3.89336 14.6231 3.86638 14.678 3.85544C14.733 3.84451 14.79 3.85012 14.8417 3.87157C14.8935 3.89301 14.9378 3.92933 14.9689 3.97592C15 4.02252 15.0166 4.07729 15.0166 4.13333C15.0166 4.20848 14.9868 4.28054 14.9336 4.33368C14.8805 4.38682 14.8084 4.41667 14.7333 4.41667Z" fill="white"/>
<path d="M8.50001 3.56667C6.0003 3.56667 3.96667 5.60029 3.96667 8.1C3.96667 10.5997 6.0003 12.6333 8.50001 12.6333C10.9997 12.6333 13.0333 10.5997 13.0333 8.1C13.0333 5.60029 10.9997 3.56667 8.50001 3.56667ZM8.50001 12.0667C6.31267 12.0667 4.53334 10.2873 4.53334 8.1C4.53334 5.91267 6.31267 4.13333 8.50001 4.13333C10.6873 4.13333 12.4667 5.91267 12.4667 8.1C12.4667 10.2873 10.6873 12.0667 8.50001 12.0667Z" fill="white"/>
<path d="M8.49998 4.7C6.62525 4.7 5.09998 6.22504 5.09998 8.1C5.09998 9.97496 6.62525 11.5 8.49998 11.5C10.3747 11.5 11.9 9.97496 11.9 8.1C11.9 6.22504 10.3747 4.7 8.49998 4.7ZM8.49998 10.9333C7.9396 10.9333 7.3918 10.7672 6.92586 10.4558C6.45992 10.1445 6.09677 9.70199 5.88232 9.18427C5.66787 8.66655 5.61176 8.09686 5.72108 7.54725C5.83041 6.99763 6.10026 6.49278 6.49651 6.09653C6.89275 5.70028 7.39761 5.43043 7.94722 5.32111C8.49683 5.21178 9.06652 5.26789 9.58425 5.48234C10.102 5.69679 10.5445 6.05995 10.8558 6.52588C11.1671 6.99182 11.3333 7.53962 11.3333 8.1C11.3324 8.85118 11.0336 9.57134 10.5025 10.1025C9.97131 10.6337 9.25115 10.9325 8.49998 10.9333Z" fill="white"/>
<path d="M2.83332 3.56667C2.75818 3.56667 2.68611 3.59652 2.63297 3.64965C2.57984 3.70279 2.54999 3.77485 2.54999 3.85V12.6333C2.54999 12.7085 2.57984 12.7805 2.63297 12.8337C2.68611 12.8868 2.75818 12.9167 2.83332 12.9167C2.90847 12.9167 2.98053 12.8868 3.03367 12.8337C3.0868 12.7805 3.11665 12.7085 3.11665 12.6333V3.85C3.11665 3.77485 3.0868 3.70279 3.03367 3.64965C2.98053 3.59652 2.90847 3.56667 2.83332 3.56667Z" fill="white"/>
</g>
<defs>
<clipPath id="clip0_2_1156">
<rect width="17" height="14.1667" fill="white" transform="translate(0 0.166668)"/>
</clipPath>
</defs>
</svg>
