<svg width="21" height="21" viewBox="0 0 21 21" fill="none" xmlns="http://www.w3.org/2000/svg">
<g clip-path="url(#clip0_2_1136)">
<path d="M20.9546 0.876551C20.9311 0.664632 20.8361 0.467042 20.6853 0.316268C20.5345 0.165495 20.3369 0.0705116 20.125 0.046942C18.5253 -0.144024 17.0915 0.251999 16.2916 1.10665L13.8231 3.73478L12.9481 4.67396L10.9133 4.53152C10.9289 4.48458 10.9368 4.43542 10.9367 4.38594C10.9366 4.26144 10.8871 4.14208 10.799 4.0541L10.0445 3.29963C9.95647 3.21169 9.83712 3.16229 9.71268 3.16229C9.58824 3.16229 9.46889 3.21169 9.38084 3.29963L8.42758 4.25289L7.53536 4.1308C7.51682 4.04063 7.47218 3.95789 7.407 3.89287L6.6541 3.1384C6.5639 3.054 6.445 3.00704 6.32147 3.00704C6.19794 3.00704 6.07904 3.054 5.98884 3.1384L5.31107 3.82557L1.66393 3.32624C1.59213 3.31635 1.51902 3.32321 1.45031 3.3463C1.38161 3.36938 1.31918 3.40805 1.26791 3.45929L0.137771 4.58943C0.0842916 4.64298 0.044543 4.70867 0.0219218 4.78089C-0.000699333 4.85312 -0.00552543 4.92974 0.00784909 5.00423C0.0211244 5.07885 0.0522628 5.14914 0.0986007 5.20911C0.144939 5.26907 0.205101 5.31693 0.273951 5.3486L4.15902 7.13304V7.14086C4.24259 7.22392 4.35433 7.27253 4.47207 7.27704L8.83455 9.2227L4.59104 14.1816L1.91438 14.1956C1.79113 14.1974 1.67335 14.2468 1.58567 14.3334L0.557269 15.3634C0.50566 15.4152 0.466892 15.4785 0.444057 15.548C0.421221 15.6175 0.414946 15.6914 0.425742 15.7638C0.436538 15.8362 0.464101 15.905 0.506233 15.9649C0.548364 16.0247 0.603904 16.0739 0.668409 16.1084L3.42176 17.5767L4.90096 20.3269C4.93547 20.3917 4.98468 20.4475 5.04465 20.4898C5.10462 20.5321 5.17368 20.5598 5.24629 20.5706C5.31889 20.5814 5.39301 20.5751 5.46271 20.552C5.5324 20.529 5.59573 20.49 5.64761 20.438L6.67601 19.4096C6.76334 19.3224 6.81281 19.2043 6.81375 19.0809L6.82941 16.4043L11.7883 12.1608L13.7574 16.5718C13.7673 16.6725 13.8102 16.7672 13.8795 16.841L15.6561 20.7308C15.6876 20.7994 15.7352 20.8595 15.7949 20.9058C15.8546 20.9521 15.9246 20.9833 15.9989 20.9969C16.0265 20.9991 16.0543 20.9991 16.0819 20.9969C16.2061 20.9972 16.3255 20.9482 16.4137 20.8607L17.5454 19.729C17.5967 19.6777 17.6353 19.6153 17.6584 19.5466C17.6815 19.4779 17.6884 19.4047 17.6785 19.3329L17.1791 15.6874L17.8647 15.0002C17.9527 14.9122 18.0021 14.7928 18.0021 14.6684C18.0021 14.5439 17.9527 14.4246 17.8647 14.3365L17.1322 13.604C17.0633 13.5333 16.9731 13.4871 16.8755 13.4725L16.7502 12.5615L17.7035 11.6082C17.7914 11.5202 17.8408 11.4008 17.8408 11.2764C17.8408 11.1519 17.7914 11.0326 17.7035 10.9445L16.971 10.212C16.9076 10.1483 16.8274 10.1042 16.7397 10.0848C16.652 10.0653 16.5606 10.0715 16.4763 10.1024L16.3276 8.05186L19.8918 4.71152C20.748 3.90853 21.144 2.47628 20.9546 0.876551ZM4.71469 6.35508L4.67243 6.33786L4.62704 6.31438L1.27887 4.77726L1.76724 4.28733L5.41438 4.78822C5.48631 4.79791 5.5595 4.7908 5.62821 4.76744C5.69692 4.74409 5.75928 4.70512 5.8104 4.65361L6.32851 4.1355L6.42243 4.22785C6.37459 4.29332 6.34452 4.37006 6.33515 4.4506C6.32578 4.53114 6.33742 4.61273 6.36894 4.68744C6.40046 4.76214 6.45079 4.82741 6.51502 4.8769C6.57926 4.92638 6.65521 4.95838 6.73548 4.9698L8.53402 5.21555C8.60582 5.22544 8.67893 5.21857 8.74763 5.19549C8.81633 5.17241 8.87877 5.13373 8.93003 5.0825L9.71268 4.29985L9.8019 4.38907L9.59685 4.59726C9.53336 4.66096 9.4895 4.74157 9.47049 4.82948C9.45148 4.91738 9.45811 5.0089 9.4896 5.09315C9.52109 5.1774 9.57611 5.25083 9.64812 5.30472C9.72014 5.35861 9.8061 5.39068 9.89582 5.39712L12.1749 5.55365L9.51388 8.48701L4.71469 6.35508ZM16.409 11.4439L16.6391 11.2138L16.708 11.2826L15.9253 12.0653C15.8743 12.1164 15.8358 12.1785 15.8127 12.247C15.7896 12.3154 15.7827 12.3882 15.7923 12.4597L16.0427 14.2958C16.0538 14.3782 16.0866 14.4562 16.1377 14.5218C16.1889 14.5874 16.2565 14.6383 16.3337 14.6692C16.4109 14.7 16.495 14.7099 16.5772 14.6976C16.6595 14.6854 16.737 14.6515 16.8019 14.5995L16.8723 14.6699L16.3527 15.1896C16.3014 15.2409 16.2628 15.3033 16.2397 15.372C16.2166 15.4407 16.2097 15.5138 16.2196 15.5856L16.7189 19.2312L16.2306 19.7196L14.6934 16.3714C14.6934 16.362 14.6825 16.3511 14.6762 16.3401C14.6733 16.3305 14.6696 16.321 14.6653 16.3119L12.5067 11.4736L15.4479 8.82355L15.6045 11.1402C15.6109 11.2299 15.643 11.3159 15.6969 11.3879C15.7507 11.4599 15.8242 11.5149 15.9084 11.5464C15.9927 11.5779 16.0842 11.5845 16.1721 11.5655C16.26 11.5465 16.3406 11.5027 16.4043 11.4392L16.409 11.4439ZM16.2932 6.79963L10.9884 11.58L11.0009 11.5957L6.04989 15.8329C5.99875 15.8767 5.9576 15.9309 5.92924 15.992C5.90088 16.053 5.88598 16.1194 5.88553 16.1867L5.86988 18.8853L5.42533 19.322L4.19032 17.0022C4.1458 16.9201 4.07836 16.8526 3.99622 16.8081L1.67489 15.5715L2.11943 15.1286L4.81644 15.1129C4.884 15.1127 4.95072 15.0979 5.01204 15.0695C5.07337 15.0412 5.12784 14.9999 5.17176 14.9486L9.63441 9.73299V9.74082L14.5181 4.36246L16.9694 1.74529C17.5658 1.10821 18.7006 0.821766 20.0139 0.984557C20.1704 2.28845 19.8808 3.42328 19.2453 4.01966L16.2932 6.79963Z" fill="white"/>
</g>
<defs>
<clipPath id="clip0_2_1136">
<rect width="21" height="21" fill="white"/>
</clipPath>
</defs>
</svg>
