<svg width="14" height="14" viewBox="0 0 14 14" fill="none" xmlns="http://www.w3.org/2000/svg">
<g clip-path="url(#clip0_2_1171)">
<path d="M3.97063 1.69584C4.0111 1.48278 3.84139 1.50659 3.46151 1.76728C3.12457 1.87243 3.04763 1.97594 3.23069 2.07779C3.54423 2.16616 3.69563 2.30668 3.68489 2.49938C3.69728 2.77273 3.76885 2.76475 3.89961 2.47543C3.89961 2.41184 3.99252 2.35156 4.17833 2.29251C4.29945 2.25892 4.32849 2.18198 4.26545 2.06169C4.22444 2.00085 4.28816 1.86032 4.45663 1.6401C4.77128 1.38409 4.85881 1.26022 4.71925 1.26847C4.59014 1.22911 4.46806 1.27412 4.35299 1.4035C4.34266 1.48032 4.31325 1.55333 4.26745 1.61586C4.22165 1.6784 4.16091 1.72847 4.09079 1.7615C4.06663 1.76603 4.04166 1.7622 4.01997 1.75064C3.99828 1.73909 3.98117 1.72049 3.97146 1.69791L3.97063 1.69584ZM10.6293 3.46436C10.9076 3.94582 11.1305 4.16329 11.2978 4.11677C11.373 4.03611 11.4711 4.03088 11.5922 4.10108C11.7023 4.15614 11.8587 4.15338 12.0613 4.09282C12.2912 4.06144 12.3389 4.18091 12.2046 4.45123C12.0138 4.63209 11.6824 4.66911 11.2103 4.56231C11.0201 4.47807 10.8874 4.47546 10.8122 4.55446C10.6837 4.62548 10.522 4.58832 10.3271 4.44297C10.1838 4.41985 10.1177 4.34016 10.128 4.20431C10.2527 4.01161 10.0936 3.94541 9.6507 4.0057C9.38892 4.11581 9.20035 4.1765 9.08501 4.18779L9.05115 4.201C8.91241 4.17375 8.88929 4.13494 8.9826 4.08498C9.23889 4.07121 9.39029 3.95986 9.43681 3.75093C9.45223 3.6254 9.56895 3.54048 9.78697 3.49616C9.97608 3.48294 10.1166 3.40614 10.2086 3.26575C10.2891 3.16871 10.4951 3.22735 10.6285 3.4623L10.6293 3.46436ZM0.578528 5.03799C0.921738 3.83855 1.60166 2.76266 2.53769 1.93787C3.47373 1.11307 4.62663 0.573957 5.85972 0.384423C5.63923 0.417869 5.64212 0.533899 5.54921 0.545873C5.3188 0.579733 5.21888 0.628456 5.18378 0.697413C4.91869 1.1541 6.07981 1.07152 5.70075 1.35808C5.56751 1.41561 5.48493 1.48994 5.453 1.58105C5.43813 1.67974 5.40056 1.73507 5.3411 1.74622C5.183 1.77404 5.02014 1.74617 4.88029 1.66735C4.70769 1.63391 4.68415 1.64918 4.64162 1.71484C4.59083 1.86514 4.6858 1.9213 4.94346 1.9374C5.09294 1.83789 5.14331 1.84326 5.17469 1.9535C5.18515 2.13271 5.25673 2.23346 5.38941 2.25576C5.54136 2.35183 5.58376 2.45795 5.51659 2.57412C5.44557 2.67046 5.45355 2.78181 5.54054 2.90817C5.58555 3.06177 5.50668 3.09935 5.30229 3.11462C5.13216 3.10636 5.07105 3.09274 5.11895 2.97919C5.32018 2.82503 5.36257 2.74011 5.24613 2.72442C5.03334 2.83453 4.88194 2.87692 4.79192 2.8516C4.65153 2.8388 4.61726 2.87596 4.68828 2.96308C4.63488 3.09081 4.71182 3.12798 4.9191 3.07457C5.02728 3.08985 5.03761 3.14559 4.95089 3.23974C4.88835 3.26857 4.8273 3.30054 4.76797 3.33553C4.60005 3.45858 4.47274 3.50097 4.38602 3.46271C4.2733 3.31984 3.87855 3.60187 3.74188 3.79717C3.57671 4.01024 3.55524 4.12462 3.48339 4.15848C3.02547 4.39136 2.94247 4.45784 2.93421 5.08176C2.91398 5.20563 2.7389 5.2143 2.71083 5.10612C2.62287 4.87447 2.61792 4.73449 2.32145 4.73945C1.85595 4.77386 1.59086 4.90654 1.52617 5.1375C1.46148 5.36846 1.47208 5.54615 1.55796 5.67057C1.67551 5.83574 1.81053 5.78784 1.96303 5.52688C2.0514 5.41539 2.15463 5.41663 2.18271 5.52688C2.20087 5.59955 1.8883 6.2404 2.24175 6.05913C2.34416 6.02774 2.43458 5.92741 2.44821 6.01164C2.39742 6.23503 2.37884 6.46337 2.42385 6.60087C2.60016 6.77843 2.78061 6.73301 2.93339 6.55958C3.13489 6.1285 3.53748 6.32381 3.83767 6.40845C4.20517 6.51292 5.18708 7.15707 5.19245 7.43414C5.35762 7.77892 6.71281 7.62201 6.32219 8.4049C5.95304 8.98298 6.37298 9.51647 5.97203 9.61392C5.68877 9.68618 5.61486 9.80345 5.6223 9.96449C5.66359 10.0884 5.51948 10.2312 5.44763 10.2989C5.2972 10.6258 5.06721 10.9098 4.77871 11.1248C4.57225 11.3052 4.51857 11.5018 4.49256 11.714C4.41163 12.0146 4.52834 12.2797 4.84271 12.5093C5.00953 12.6604 4.99356 12.7347 4.79481 12.7323C4.18012 12.6268 3.81414 12.3192 3.69687 11.8094C3.68406 11.5212 3.6522 11.2341 3.60148 10.9501C3.51725 10.6988 3.49082 10.3912 3.52221 10.0272C3.52744 9.53835 3.42655 9.2573 3.21954 9.18407C3.15641 9.17 3.09692 9.14289 3.04487 9.1045C2.99282 9.0661 2.94937 9.01726 2.91728 8.9611C2.83828 8.76841 2.67394 8.42431 2.42426 7.92881C2.36274 7.80741 2.38297 7.68106 2.48785 7.54727C2.6298 7.42045 2.74832 7.26964 2.838 7.10174C2.88838 6.97374 2.83002 6.89941 2.66293 6.87876C2.514 6.82096 2.3337 6.69364 2.12201 6.49682C1.92918 6.24907 1.6678 6.03972 1.37422 6.03518C1.11821 5.90304 0.932397 5.83987 0.785399 5.68544C0.763102 5.43728 0.711487 5.18953 0.577702 5.03592L0.578528 5.03799ZM0.47406 5.46164C0.483144 5.41897 0.492641 5.37644 0.502551 5.33405C0.537236 5.45049 0.518242 5.47857 0.47406 5.46164ZM10.2643 1.27673C11.9226 2.29953 13.0308 3.76827 13.2654 5.79693C13.0878 5.91006 12.9763 6.21562 12.7083 5.85102C12.5886 5.4443 12.3107 5.14906 12.155 4.9616C11.9299 4.79918 11.8291 4.80455 11.8528 4.9777C12.1716 5.40383 12.3465 5.74793 12.3776 6.00999C12.4761 6.29077 12.6247 6.46585 12.8231 6.53522C13.0036 6.56598 13.1891 6.53438 13.3492 6.44562C13.3595 6.59674 13.3657 6.69708 13.3657 6.82632C13.3657 6.95557 13.3632 7.03609 13.3583 7.14014C13.3356 7.16657 13.3112 7.19299 13.2848 7.21942C12.9751 7.43359 12.7835 7.61444 12.71 7.76199C12.6848 8.04817 12.6901 8.3362 12.7257 8.62127C12.77 8.88278 12.6852 9.08429 12.4713 9.22578C12.2351 9.38654 12.0813 9.62053 12.0097 9.92774C11.7619 10.4078 11.518 10.673 11.278 10.7234C10.8056 10.9048 10.6095 10.8835 10.6896 10.6594C10.5273 9.57717 10.1433 9.33809 10.1941 8.7501C10.192 8.02006 10.0393 7.44239 9.67589 7.18102C9.54128 7.08357 9.27743 7.06829 8.80877 7.14344C8.55028 7.20841 8.37521 7.15542 8.28354 6.98447C8.06657 6.64574 7.89028 6.28263 7.75831 5.90263C7.58929 5.49247 7.66361 5.19544 7.98128 5.01156C8.30584 4.86814 8.48614 4.71426 8.5222 4.54992C8.82033 4.3297 8.90649 4.19055 8.78069 4.13246C8.68159 4.0953 8.64443 4.02923 8.6692 3.93344C8.88433 3.6828 8.56432 3.35866 9.14282 3.44413C9.34225 3.51474 9.43186 3.09811 9.1263 3.03823C8.96609 2.95813 8.91324 2.94822 8.96774 2.87926C9.05693 2.68657 8.96939 2.64156 8.70513 2.74424C8.59501 2.74424 8.57643 2.69909 8.64938 2.6088C8.74567 2.4147 8.86898 2.23523 9.01564 2.07573C9.24439 1.92295 9.34776 1.92831 9.32574 2.09183C9.26752 2.20992 9.26215 2.29499 9.30963 2.34619C9.40213 2.43125 9.42855 2.49731 9.38933 2.54521C9.35051 2.67982 9.38231 2.72731 9.48471 2.68849C9.57115 2.6439 9.69323 2.54315 9.85097 2.38624C9.99163 2.24144 9.95447 2.14592 9.73948 2.09968C9.60184 2.00911 9.59124 1.91359 9.70769 1.81311C9.96177 1.70796 10.1209 1.56743 10.185 1.39153C10.1984 1.34628 10.2254 1.30622 10.2622 1.27673H10.2643ZM6.84783 0.310097C7.4206 0.309824 7.99092 0.384932 8.54409 0.533485C8.46729 0.592119 8.41732 0.65736 8.40824 0.720949C8.27074 1.04591 8.28436 1.09629 8.04694 1.17516C7.4478 1.37418 7.30369 1.16029 6.68143 1.8511C6.43987 2.0716 6.34118 2.02411 6.32301 1.83541C6.11862 1.67768 6.09756 1.46379 6.32301 1.07152C6.37422 0.855698 6.23369 0.73898 5.90143 0.721363C5.77673 0.638779 5.77411 0.567207 5.89358 0.506646C6.09398 0.474438 6.16033 0.43177 6.09261 0.378642C6.02095 0.372908 5.9489 0.374152 5.87748 0.382358C6.198 0.334285 6.52166 0.310131 6.84577 0.310097H6.84783Z" fill="white"/>
<path d="M6.88001 0.57764C6.05236 0.577586 5.2328 0.740564 4.46814 1.05727C3.70348 1.37397 3.0087 1.83819 2.42346 2.42343C1.83822 3.00867 1.374 3.70345 1.0573 4.46811C0.740593 5.23277 0.577616 6.05233 0.57767 6.87998C0.57767 8.55146 1.24166 10.1545 2.42358 11.3364C3.6055 12.5183 5.20852 13.1823 6.88001 13.1823C8.55146 13.1822 10.1544 12.5182 11.3363 11.3363C12.5182 10.1544 13.1822 8.55142 13.1823 6.87998C13.1823 5.20849 12.5183 3.60547 11.3364 2.42355C10.1545 1.24163 8.55149 0.57764 6.88001 0.57764ZM6.88001 -0.000442505C7.78354 -0.000442507 8.67822 0.177528 9.51297 0.523306C10.3477 0.869084 11.1062 1.3759 11.7451 2.01481C12.3839 2.65372 12.8907 3.41222 13.2364 4.24698C13.5821 5.08175 13.7601 5.97645 13.76 6.87998C13.76 8.70467 13.0352 10.4546 11.7449 11.7449C10.4547 13.0351 8.7047 13.76 6.88001 13.76C5.05532 13.76 3.30536 13.0351 2.01511 11.7449C0.724856 10.4546 0 8.70467 0 6.87998C0 5.05528 0.724856 3.30533 2.01511 2.01508C3.30536 0.724827 5.05532 -2.91857e-05 6.88001 -2.91857e-05V-0.000442505Z" fill="white"/>
</g>
<defs>
<clipPath id="clip0_2_1171">
<rect width="13.76" height="13.76" fill="white"/>
</clipPath>
</defs>
</svg>
