<?xml version="1.0" encoding="UTF-8"?>
<svg width="127px" height="30px" viewBox="0 0 127 30" version="1.1" xmlns="http://www.w3.org/2000/svg" xmlns:xlink="http://www.w3.org/1999/xlink">
    <!-- Generator: Sketch 60.1 (88133) - https://sketch.com -->
    <title>Group 15</title>
    <desc>Created with Sketch.</desc>
    <defs>
        <linearGradient x1="50%" y1="100%" x2="50%" y2="-0.00244940512%" id="linearGradient-1">
            <stop stop-color="#69CFFF" offset="0%"></stop>
            <stop stop-color="#7F91FF" offset="100%"></stop>
        </linearGradient>
    </defs>
    <g id="Page-1" stroke="none" stroke-width="1" fill="none" fill-rule="evenodd">
        <g id="Group-15" fill-rule="nonzero">
            <path d="M55.144,14 L55.144,4.488 L58.424,4.488 L58.424,2.344 L49.16,2.344 L49.16,4.488 L52.44,4.488 L52.44,14 L55.144,14 Z M64.7661538,14.128 C65.6728205,14.128 66.4981538,13.976 67.2421538,13.672 C67.9861538,13.368 68.6221538,12.948 69.1501538,12.412 C69.6781538,11.876 70.0874872,11.2453333 70.3781538,10.52 C70.6688205,9.79466667 70.8141538,9.01066667 70.8141538,8.168 C70.8141538,7.33066667 70.6688205,6.54933333 70.3781538,5.824 C70.0874872,5.09866667 69.6781538,4.46933333 69.1501538,3.936 C68.6221538,3.40266667 67.9861538,2.98266667 67.2421538,2.676 C66.4981538,2.36933333 65.6728205,2.216 64.7661538,2.216 C63.8594872,2.216 63.0328205,2.368 62.2861538,2.672 C61.5394872,2.976 60.9008205,3.39466667 60.3701538,3.928 C59.8394872,4.46133333 59.4288205,5.09066667 59.1381538,5.816 C58.8474872,6.54133333 58.7021538,7.32533333 58.7021538,8.168 C58.7021538,9.01066667 58.8474872,9.79466667 59.1381538,10.52 C59.4288205,11.2453333 59.8394872,11.876 60.3701538,12.412 C60.9008205,12.948 61.5394872,13.368 62.2861538,13.672 C63.0328205,13.976 63.8594872,14.128 64.7661538,14.128 Z M64.7661538,11.888 C64.2434872,11.888 63.7781538,11.804 63.3701538,11.636 C62.9621538,11.468 62.6181538,11.224 62.3381538,10.904 C62.0581538,10.584 61.8434872,10.1933333 61.6941538,9.732 C61.5448205,9.27066667 61.4701538,8.74933333 61.4701538,8.168 C61.4701538,7.592 61.5448205,7.07333333 61.6941538,6.612 C61.8434872,6.15066667 62.0581538,5.76 62.3381538,5.44 C62.6181538,5.12 62.9621538,4.87466667 63.3701538,4.704 C63.7781538,4.53333333 64.2434872,4.448 64.7661538,4.448 C65.2834872,4.448 65.7448205,4.53333333 66.1501538,4.704 C66.5554872,4.87466667 66.8981538,5.12 67.1781538,5.44 C67.4581538,5.76 67.6728205,6.15066667 67.8221538,6.612 C67.9714872,7.07333333 68.0461538,7.592 68.0461538,8.168 C68.0461538,8.74933333 67.9714872,9.27066667 67.8221538,9.732 C67.6728205,10.1933333 67.4581538,10.584 67.1781538,10.904 C66.8981538,11.224 66.5554872,11.468 66.1501538,11.636 C65.7448205,11.804 65.2834872,11.888 64.7661538,11.888 Z M75.0603077,14 L75.0603077,10.104 L76.4683077,10.104 C77.273641,10.104 77.9709744,10.0066667 78.5603077,9.812 C79.149641,9.61733333 79.6363077,9.34666667 80.0203077,9 C80.4043077,8.65333333 80.689641,8.23733333 80.8763077,7.752 C81.0629744,7.26666667 81.1563077,6.73333333 81.1563077,6.152 C81.1563077,5.61333333 81.065641,5.112 80.8843077,4.648 C80.7029744,4.184 80.421641,3.78133333 80.0403077,3.44 C79.6589744,3.09866667 79.173641,2.83066667 78.5843077,2.636 C77.9949744,2.44133333 77.289641,2.344 76.4683077,2.344 L76.4683077,2.344 L72.3563077,2.344 L72.3563077,14 L75.0603077,14 Z M76.4683077,8.064 L75.0603077,8.064 L75.0603077,4.368 L76.4683077,4.368 C76.809641,4.368 77.1043077,4.41066667 77.3523077,4.496 C77.6003077,4.58133333 77.805641,4.70266667 77.9683077,4.86 C78.1309744,5.01733333 78.2523077,5.20533333 78.3323077,5.424 C78.4123077,5.64266667 78.4523077,5.88533333 78.4523077,6.152 C78.4523077,6.75466667 78.297641,7.224 77.9883077,7.56 C77.6789744,7.896 77.1723077,8.064 76.4683077,8.064 L76.4683077,8.064 Z M93.8406154,14 L93.8406154,12.208 L91.9206154,12.208 L91.9206154,2.336 L89.8726154,2.336 L86.2406154,5.384 L87.0246154,6.424 C87.0779487,6.49333333 87.1592821,6.55866667 87.2686154,6.62 C87.3779487,6.68133333 87.5019487,6.712 87.6406154,6.712 C87.7206154,6.712 87.8032821,6.69733333 87.8886154,6.668 C87.9739487,6.63866667 88.0592821,6.58933333 88.1446154,6.52 L88.1446154,6.52 L89.4646154,5.424 C89.4486154,5.73866667 89.4406154,6.04 89.4406154,6.328 L89.4406154,6.328 L89.4406154,12.208 L87.2006154,12.208 L87.2006154,14 L93.8406154,14 Z M99.3347692,14.128 C99.9534359,14.128 100.528103,14.008 101.058769,13.768 C101.589436,13.528 102.048103,13.1626667 102.434769,12.672 C102.821436,12.1813333 103.124103,11.5626667 103.342769,10.816 C103.561436,10.0693333 103.670769,9.18666667 103.670769,8.168 C103.670769,7.14933333 103.561436,6.26666667 103.342769,5.52 C103.124103,4.77333333 102.821436,4.15466667 102.434769,3.664 C102.048103,3.17333333 101.589436,2.80933333 101.058769,2.572 C100.528103,2.33466667 99.9534359,2.216 99.3347692,2.216 C98.7161026,2.216 98.1441026,2.33466667 97.6187692,2.572 C97.0934359,2.80933333 96.6387692,3.17333333 96.2547692,3.664 C95.8707692,4.15466667 95.5707692,4.77333333 95.3547692,5.52 C95.1387692,6.26666667 95.0307692,7.14933333 95.0307692,8.168 C95.0307692,9.18666667 95.1387692,10.0693333 95.3547692,10.816 C95.5707692,11.5626667 95.8707692,12.1813333 96.2547692,12.672 C96.6387692,13.1626667 97.0934359,13.528 97.6187692,13.768 C98.1441026,14.008 98.7161026,14.128 99.3347692,14.128 Z M99.3347692,12.136 C99.1161026,12.136 98.9014359,12.0813333 98.6907692,11.972 C98.4801026,11.8626667 98.2934359,11.66 98.1307692,11.364 C97.9681026,11.068 97.8374359,10.664 97.7387692,10.152 C97.6401026,9.64 97.5907692,8.97866667 97.5907692,8.168 C97.5907692,7.36266667 97.6401026,6.70266667 97.7387692,6.188 C97.8374359,5.67333333 97.9681026,5.26933333 98.1307692,4.976 C98.2934359,4.68266667 98.4801026,4.48133333 98.6907692,4.372 C98.9014359,4.26266667 99.1161026,4.208 99.3347692,4.208 C99.5534359,4.208 99.7694359,4.26266667 99.9827692,4.372 C100.196103,4.48133333 100.386769,4.68266667 100.554769,4.976 C100.722769,5.26933333 100.857436,5.67333333 100.958769,6.188 C101.060103,6.70266667 101.110769,7.36266667 101.110769,8.168 C101.110769,8.97866667 101.060103,9.64 100.958769,10.152 C100.857436,10.664 100.722769,11.068 100.554769,11.364 C100.386769,11.66 100.196103,11.8626667 99.9827692,11.972 C99.7694359,12.0813333 99.5534359,12.136 99.3347692,12.136 Z M54.0175,29 C54.5825,29 55.0875,28.93375 55.5325,28.80125 C55.9775,28.66875 56.3525,28.4775 56.6575,28.2275 C56.9625,27.9775 57.195,27.6725 57.355,27.3125 C57.515,26.9525 57.595,26.5475 57.595,26.0975 C57.595,25.3925 57.37,24.825 56.92,24.395 C56.47,23.965 55.8275,23.6875 54.9925,23.5625 C55.3375,23.4775 55.64375,23.35375 55.91125,23.19125 C56.17875,23.02875 56.405,22.8375 56.59,22.6175 C56.775,22.3975 56.91625,22.1575 57.01375,21.8975 C57.11125,21.6375 57.16,21.3675 57.16,21.0875 C57.16,20.6625 57.08875,20.2825 56.94625,19.9475 C56.80375,19.6125 56.5875,19.32875 56.2975,19.09625 C56.0075,18.86375 55.64125,18.6875 55.19875,18.5675 C54.75625,18.4475 54.2325,18.3875 53.6275,18.3875 L53.6275,18.3875 L50.575,18.3875 L50.575,29 L54.0175,29 Z M53.6425,23.3525 L51.34,23.3525 L51.34,18.995 L53.6275,18.995 C54.5725,18.995 55.27125,19.17875 55.72375,19.54625 C56.17625,19.91375 56.4025,20.455 56.4025,21.17 C56.4025,21.445 56.35,21.7125 56.245,21.9725 C56.14,22.2325 55.97625,22.465 55.75375,22.67 C55.53125,22.875 55.24625,23.04 54.89875,23.165 C54.55125,23.29 54.1325,23.3525 53.6425,23.3525 L53.6425,23.3525 Z M54.0025,28.385 L51.34,28.385 L51.34,23.915 L54.01,23.915 C54.455,23.915 54.8525,23.965 55.2025,24.065 C55.5525,24.165 55.8475,24.30875 56.0875,24.49625 C56.3275,24.68375 56.51125,24.91125 56.63875,25.17875 C56.76625,25.44625 56.83,25.7475 56.83,26.0825 C56.83,26.8125 56.5925,27.37875 56.1175,27.78125 C55.6425,28.18375 54.9375,28.385 54.0025,28.385 L54.0025,28.385 Z M62.9182692,29.0975 C63.1982692,29.0975 63.4770192,29.07 63.7545192,29.015 C64.0320192,28.96 64.2920192,28.88625 64.5345192,28.79375 C64.7770192,28.70125 64.9970192,28.59 65.1945192,28.46 C65.3920192,28.33 65.5507692,28.19 65.6707692,28.04 L65.6707692,28.04 L65.4757692,27.8 C65.4407692,27.75 65.3907692,27.725 65.3257692,27.725 C65.2757692,27.725 65.1957692,27.76625 65.0857692,27.84875 C64.9757692,27.93125 64.8270192,28.02375 64.6395192,28.12625 C64.4520192,28.22875 64.2207692,28.32125 63.9457692,28.40375 C63.6707692,28.48625 63.3457692,28.5275 62.9707692,28.5275 C62.5507692,28.5275 62.1707692,28.455 61.8307692,28.31 C61.4907692,28.165 61.2007692,27.94875 60.9607692,27.66125 C60.7207692,27.37375 60.5357692,27.0175 60.4057692,26.5925 C60.2757692,26.1675 60.2107692,25.675 60.2107692,25.115 L60.2107692,25.115 L60.2107692,24.9725 L65.6032692,24.9725 C65.6732692,24.9725 65.7245192,24.9525 65.7570192,24.9125 C65.7895192,24.8725 65.8057692,24.7975 65.8057692,24.6875 C65.8057692,24.1625 65.7320192,23.6975 65.5845192,23.2925 C65.4370192,22.8875 65.2320192,22.54625 64.9695192,22.26875 C64.7070192,21.99125 64.3970192,21.78 64.0395192,21.635 C63.6820192,21.49 63.2932692,21.4175 62.8732692,21.4175 C62.3432692,21.4175 61.8695192,21.51 61.4520192,21.695 C61.0345192,21.88 60.6820192,22.13625 60.3945192,22.46375 C60.1070192,22.79125 59.8870192,23.18125 59.7345192,23.63375 C59.5820192,24.08625 59.5057692,24.58 59.5057692,25.115 C59.5057692,25.75 59.5870192,26.31375 59.7495192,26.80625 C59.9120192,27.29875 60.1432692,27.715 60.4432692,28.055 C60.7432692,28.395 61.1032692,28.65375 61.5232692,28.83125 C61.9432692,29.00875 62.4082692,29.0975 62.9182692,29.0975 Z M65.1607692,24.515 L60.2407692,24.515 C60.2857692,24.125 60.3770192,23.7725 60.5145192,23.4575 C60.6520192,23.1425 60.8320192,22.8725 61.0545192,22.6475 C61.2770192,22.4225 61.5407692,22.25 61.8457692,22.13 C62.1507692,22.01 62.4957692,21.95 62.8807692,21.95 C63.2207692,21.95 63.5307692,22.00875 63.8107692,22.12625 C64.0907692,22.24375 64.3307692,22.4125 64.5307692,22.6325 C64.7307692,22.8525 64.8857692,23.12125 64.9957692,23.43875 C65.1057692,23.75625 65.1607692,24.115 65.1607692,24.515 L65.1607692,24.515 Z M69.7865385,29.12 C70.2015385,29.12 70.5715385,29.06 70.8965385,28.94 C71.2215385,28.82 71.4952885,28.6575 71.7177885,28.4525 C71.9402885,28.2475 72.1102885,28.005 72.2277885,27.725 C72.3452885,27.445 72.4040385,27.1425 72.4040385,26.8175 C72.4040385,26.5175 72.3440385,26.2625 72.2240385,26.0525 C72.1040385,25.8425 71.9465385,25.665 71.7515385,25.52 C71.5565385,25.375 71.3352885,25.25375 71.0877885,25.15625 C70.8402885,25.05875 70.5865385,24.97 70.3265385,24.89 C70.0665385,24.81 69.8127885,24.73 69.5652885,24.65 C69.3177885,24.57 69.0965385,24.475 68.9015385,24.365 C68.7065385,24.255 68.5490385,24.1225 68.4290385,23.9675 C68.3090385,23.8125 68.2490385,23.6175 68.2490385,23.3825 C68.2490385,23.1925 68.2927885,23.01125 68.3802885,22.83875 C68.4677885,22.66625 68.5902885,22.515 68.7477885,22.385 C68.9052885,22.255 69.0952885,22.15125 69.3177885,22.07375 C69.5402885,21.99625 69.7865385,21.9575 70.0565385,21.9575 C70.3565385,21.9575 70.6102885,21.98875 70.8177885,22.05125 C71.0252885,22.11375 71.2002885,22.18375 71.3427885,22.26125 C71.4852885,22.33875 71.6002885,22.40875 71.6877885,22.47125 C71.7752885,22.53375 71.8465385,22.565 71.9015385,22.565 C71.9765385,22.565 72.0315385,22.53 72.0665385,22.46 L72.0665385,22.46 L72.2240385,22.2125 C71.9290385,21.9425 71.6052885,21.7425 71.2527885,21.6125 C70.9002885,21.4825 70.4965385,21.4175 70.0415385,21.4175 C69.6615385,21.4175 69.3190385,21.4725 69.0140385,21.5825 C68.7090385,21.6925 68.4502885,21.84 68.2377885,22.025 C68.0252885,22.21 67.8615385,22.425 67.7465385,22.67 C67.6315385,22.915 67.5740385,23.17 67.5740385,23.435 C67.5740385,23.745 67.6340385,24.00375 67.7540385,24.21125 C67.8740385,24.41875 68.0315385,24.595 68.2265385,24.74 C68.4215385,24.885 68.6427885,25.005 68.8902885,25.1 C69.1377885,25.195 69.3927885,25.2825 69.6552885,25.3625 C69.9177885,25.4425 70.1727885,25.5225 70.4202885,25.6025 C70.6677885,25.6825 70.8890385,25.78 71.0840385,25.895 C71.2790385,26.01 71.4365385,26.15 71.5565385,26.315 C71.6765385,26.48 71.7365385,26.6875 71.7365385,26.9375 C71.7365385,27.1625 71.6952885,27.37625 71.6127885,27.57875 C71.5302885,27.78125 71.4090385,27.9575 71.2490385,28.1075 C71.0890385,28.2575 70.8890385,28.37625 70.6490385,28.46375 C70.4090385,28.55125 70.1315385,28.595 69.8165385,28.595 C69.4815385,28.595 69.2002885,28.555 68.9727885,28.475 C68.7452885,28.395 68.5552885,28.30875 68.4027885,28.21625 C68.2502885,28.12375 68.1265385,28.0375 68.0315385,27.9575 C67.9365385,27.8775 67.8565385,27.8375 67.7915385,27.8375 C67.7365385,27.8375 67.6940385,27.8475 67.6640385,27.8675 C67.6340385,27.8875 67.6065385,27.9175 67.5815385,27.9575 L67.5815385,27.9575 L67.4090385,28.2125 C67.7090385,28.4825 68.0490385,28.70125 68.4290385,28.86875 C68.8090385,29.03625 69.2615385,29.12 69.7865385,29.12 Z M76.6773077,29.12 C76.9923077,29.12 77.2960577,29.05625 77.5885577,28.92875 C77.8810577,28.80125 78.1223077,28.6325 78.3123077,28.4225 L78.3123077,28.4225 L78.1173077,28.1075 C78.0773077,28.0575 78.0373077,28.0325 77.9973077,28.0325 C77.9623077,28.0325 77.9148077,28.05875 77.8548077,28.11125 C77.7948077,28.16375 77.7173077,28.22125 77.6223077,28.28375 C77.5273077,28.34625 77.4148077,28.40375 77.2848077,28.45625 C77.1548077,28.50875 76.9998077,28.535 76.8198077,28.535 C76.6748077,28.535 76.5398077,28.5125 76.4148077,28.4675 C76.2898077,28.4225 76.1810577,28.3525 76.0885577,28.2575 C75.9960577,28.1625 75.9235577,28.04125 75.8710577,27.89375 C75.8185577,27.74625 75.7923077,27.57 75.7923077,27.365 L75.7923077,27.365 L75.7923077,22.3025 L78.1398077,22.3025 L78.1398077,21.77 L75.7923077,21.77 L75.7923077,18.92 L75.4548077,18.92 C75.3998077,18.92 75.3560577,18.9375 75.3235577,18.9725 C75.2910577,19.0075 75.2723077,19.0475 75.2673077,19.0925 L75.2673077,19.0925 L75.0873077,21.7625 L73.8123077,21.8525 L73.8123077,22.13 C73.8123077,22.185 73.8298077,22.2275 73.8648077,22.2575 C73.8998077,22.2875 73.9448077,22.3025 73.9998077,22.3025 L73.9998077,22.3025 L75.0723077,22.3025 L75.0723077,27.4025 C75.0723077,27.9875 75.2135577,28.42 75.4960577,28.7 C75.7785577,28.98 76.1723077,29.12 76.6773077,29.12 Z M88.0438462,29.12 C88.4838462,29.12 88.8875962,29.08375 89.2550962,29.01125 C89.6225962,28.93875 89.9600962,28.83625 90.2675962,28.70375 C90.5750962,28.57125 90.8588462,28.41125 91.1188462,28.22375 C91.3788462,28.03625 91.6188462,27.825 91.8388462,27.59 L91.8388462,27.59 L91.5388462,27.2675 C91.5038462,27.2325 91.4613462,27.215 91.4113462,27.215 C91.3813462,27.215 91.3550962,27.22125 91.3325962,27.23375 C91.3100962,27.24625 91.2863462,27.2625 91.2613462,27.2825 C91.0513462,27.4775 90.8388462,27.6475 90.6238462,27.7925 C90.4088462,27.9375 90.1763462,28.06 89.9263462,28.16 C89.6763462,28.26 89.4025962,28.335 89.1050962,28.385 C88.8075962,28.435 88.4688462,28.46 88.0888462,28.46 C87.4838462,28.46 86.9225962,28.35125 86.4050962,28.13375 C85.8875962,27.91625 85.4388462,27.60375 85.0588462,27.19625 C84.6788462,26.78875 84.3813462,26.29 84.1663462,25.7 C83.9513462,25.11 83.8438462,24.44 83.8438462,23.69 C83.8438462,22.96 83.9525962,22.30125 84.1700962,21.71375 C84.3875962,21.12625 84.6913462,20.62625 85.0813462,20.21375 C85.4713462,19.80125 85.9363462,19.48375 86.4763462,19.26125 C87.0163462,19.03875 87.6088462,18.9275 88.2538462,18.9275 C88.6038462,18.9275 88.9163462,18.95375 89.1913462,19.00625 C89.4663462,19.05875 89.7088462,19.12375 89.9188462,19.20125 C90.1288462,19.27875 90.3100962,19.36375 90.4625962,19.45625 C90.6150962,19.54875 90.7450962,19.63375 90.8525962,19.71125 C90.9600962,19.78875 91.0488462,19.85375 91.1188462,19.90625 C91.1888462,19.95875 91.2463462,19.985 91.2913462,19.985 C91.3763462,19.985 91.4388462,19.955 91.4788462,19.895 L91.4788462,19.895 L91.7113462,19.5575 C91.4763462,19.3475 91.2363462,19.1625 90.9913462,19.0025 C90.7463462,18.8425 90.4850962,18.70875 90.2075962,18.60125 C89.9300962,18.49375 89.6313462,18.41125 89.3113462,18.35375 C88.9913462,18.29625 88.6388462,18.2675 88.2538462,18.2675 C87.4838462,18.2675 86.7800962,18.39875 86.1425962,18.66125 C85.5050962,18.92375 84.9575962,19.29375 84.5000962,19.77125 C84.0425962,20.24875 83.6875962,20.82 83.4350962,21.485 C83.1825962,22.15 83.0563462,22.885 83.0563462,23.69 C83.0563462,24.51 83.1788462,25.255 83.4238462,25.925 C83.6688462,26.595 84.0100962,27.16625 84.4475962,27.63875 C84.8850962,28.11125 85.4100962,28.47625 86.0225962,28.73375 C86.6350962,28.99125 87.3088462,29.12 88.0438462,29.12 Z M95.7071154,29.12 C96.0121154,29.12 96.2921154,29.09125 96.5471154,29.03375 C96.8021154,28.97625 97.0396154,28.8925 97.2596154,28.7825 C97.4796154,28.6725 97.6908654,28.5375 97.8933654,28.3775 C98.0958654,28.2175 98.2996154,28.0375 98.5046154,27.8375 L98.5046154,27.8375 L98.6096154,28.79 C98.6446154,28.93 98.7371154,29 98.8871154,29 L98.8871154,29 L99.1721154,29 L99.1721154,24.14 C99.1721154,23.725 99.1221154,23.34875 99.0221154,23.01125 C98.9221154,22.67375 98.7733654,22.38625 98.5758654,22.14875 C98.3783654,21.91125 98.1296154,21.72875 97.8296154,21.60125 C97.5296154,21.47375 97.1796154,21.41 96.7796154,21.41 C96.2346154,21.41 95.7471154,21.51 95.3171154,21.71 C94.8871154,21.91 94.4771154,22.205 94.0871154,22.595 L94.0871154,22.595 L94.2146154,22.8125 C94.2646154,22.9025 94.3396154,22.9475 94.4396154,22.9475 C94.5146154,22.9475 94.6071154,22.8975 94.7171154,22.7975 C94.8271154,22.6975 94.9696154,22.5875 95.1446154,22.4675 C95.3196154,22.3475 95.5333654,22.2375 95.7858654,22.1375 C96.0383654,22.0375 96.3446154,21.9875 96.7046154,21.9875 C97.2896154,21.9875 97.7308654,22.17375 98.0283654,22.54625 C98.3258654,22.91875 98.4746154,23.45 98.4746154,24.14 L98.4746154,24.14 L98.4746154,24.92 C97.6296154,24.94 96.9058654,25.01 96.3033654,25.13 C95.7008654,25.25 95.2083654,25.41 94.8258654,25.61 C94.4433654,25.81 94.1621154,26.045 93.9821154,26.315 C93.8021154,26.585 93.7121154,26.8775 93.7121154,27.1925 C93.7121154,27.5325 93.7683654,27.82375 93.8808654,28.06625 C93.9933654,28.30875 94.1421154,28.5075 94.3271154,28.6625 C94.5121154,28.8175 94.7246154,28.9325 94.9646154,29.0075 C95.2046154,29.0825 95.4521154,29.12 95.7071154,29.12 Z M95.8871154,28.6025 C95.6921154,28.6025 95.5046154,28.575 95.3246154,28.52 C95.1446154,28.465 94.9871154,28.37875 94.8521154,28.26125 C94.7171154,28.14375 94.6083654,27.99375 94.5258654,27.81125 C94.4433654,27.62875 94.4021154,27.4125 94.4021154,27.1625 C94.4021154,26.8975 94.4808654,26.66125 94.6383654,26.45375 C94.7958654,26.24625 95.0408654,26.0675 95.3733654,25.9175 C95.7058654,25.7675 96.1283654,25.64875 96.6408654,25.56125 C97.1533654,25.47375 97.7646154,25.42 98.4746154,25.4 L98.4746154,25.4 L98.4746154,27.3425 C98.2996154,27.5225 98.1221154,27.69 97.9421154,27.845 C97.7621154,28 97.5683654,28.13375 97.3608654,28.24625 C97.1533654,28.35875 96.9283654,28.44625 96.6858654,28.50875 C96.4433654,28.57125 96.1771154,28.6025 95.8871154,28.6025 Z M103.482885,29.12 C103.897885,29.12 104.267885,29.06 104.592885,28.94 C104.917885,28.82 105.191635,28.6575 105.414135,28.4525 C105.636635,28.2475 105.806635,28.005 105.924135,27.725 C106.041635,27.445 106.100385,27.1425 106.100385,26.8175 C106.100385,26.5175 106.040385,26.2625 105.920385,26.0525 C105.800385,25.8425 105.642885,25.665 105.447885,25.52 C105.252885,25.375 105.031635,25.25375 104.784135,25.15625 C104.536635,25.05875 104.282885,24.97 104.022885,24.89 C103.762885,24.81 103.509135,24.73 103.261635,24.65 C103.014135,24.57 102.792885,24.475 102.597885,24.365 C102.402885,24.255 102.245385,24.1225 102.125385,23.9675 C102.005385,23.8125 101.945385,23.6175 101.945385,23.3825 C101.945385,23.1925 101.989135,23.01125 102.076635,22.83875 C102.164135,22.66625 102.286635,22.515 102.444135,22.385 C102.601635,22.255 102.791635,22.15125 103.014135,22.07375 C103.236635,21.99625 103.482885,21.9575 103.752885,21.9575 C104.052885,21.9575 104.306635,21.98875 104.514135,22.05125 C104.721635,22.11375 104.896635,22.18375 105.039135,22.26125 C105.181635,22.33875 105.296635,22.40875 105.384135,22.47125 C105.471635,22.53375 105.542885,22.565 105.597885,22.565 C105.672885,22.565 105.727885,22.53 105.762885,22.46 L105.762885,22.46 L105.920385,22.2125 C105.625385,21.9425 105.301635,21.7425 104.949135,21.6125 C104.596635,21.4825 104.192885,21.4175 103.737885,21.4175 C103.357885,21.4175 103.015385,21.4725 102.710385,21.5825 C102.405385,21.6925 102.146635,21.84 101.934135,22.025 C101.721635,22.21 101.557885,22.425 101.442885,22.67 C101.327885,22.915 101.270385,23.17 101.270385,23.435 C101.270385,23.745 101.330385,24.00375 101.450385,24.21125 C101.570385,24.41875 101.727885,24.595 101.922885,24.74 C102.117885,24.885 102.339135,25.005 102.586635,25.1 C102.834135,25.195 103.089135,25.2825 103.351635,25.3625 C103.614135,25.4425 103.869135,25.5225 104.116635,25.6025 C104.364135,25.6825 104.585385,25.78 104.780385,25.895 C104.975385,26.01 105.132885,26.15 105.252885,26.315 C105.372885,26.48 105.432885,26.6875 105.432885,26.9375 C105.432885,27.1625 105.391635,27.37625 105.309135,27.57875 C105.226635,27.78125 105.105385,27.9575 104.945385,28.1075 C104.785385,28.2575 104.585385,28.37625 104.345385,28.46375 C104.105385,28.55125 103.827885,28.595 103.512885,28.595 C103.177885,28.595 102.896635,28.555 102.669135,28.475 C102.441635,28.395 102.251635,28.30875 102.099135,28.21625 C101.946635,28.12375 101.822885,28.0375 101.727885,27.9575 C101.632885,27.8775 101.552885,27.8375 101.487885,27.8375 C101.432885,27.8375 101.390385,27.8475 101.360385,27.8675 C101.330385,27.8875 101.302885,27.9175 101.277885,27.9575 L101.277885,27.9575 L101.105385,28.2125 C101.405385,28.4825 101.745385,28.70125 102.125385,28.86875 C102.505385,29.03625 102.957885,29.12 103.482885,29.12 Z M108.903654,19.6175 C108.993654,19.6175 109.078654,19.6 109.158654,19.565 C109.238654,19.53 109.308654,19.4825 109.368654,19.4225 C109.428654,19.3625 109.477404,19.29375 109.514904,19.21625 C109.552404,19.13875 109.571154,19.055 109.571154,18.965 C109.571154,18.875 109.552404,18.78875 109.514904,18.70625 C109.477404,18.62375 109.428654,18.5525 109.368654,18.4925 C109.308654,18.4325 109.238654,18.385 109.158654,18.35 C109.078654,18.315 108.993654,18.2975 108.903654,18.2975 C108.813654,18.2975 108.728654,18.315 108.648654,18.35 C108.568654,18.385 108.498654,18.4325 108.438654,18.4925 C108.378654,18.5525 108.331154,18.62375 108.296154,18.70625 C108.261154,18.78875 108.243654,18.875 108.243654,18.965 C108.243654,19.055 108.261154,19.13875 108.296154,19.21625 C108.331154,19.29375 108.378654,19.3625 108.438654,19.4225 C108.498654,19.4825 108.568654,19.53 108.648654,19.565 C108.728654,19.6 108.813654,19.6175 108.903654,19.6175 Z M109.256154,29 L109.256154,21.5375 L108.543654,21.5375 L108.543654,29 L109.256154,29 Z M112.839423,29 L112.839423,23.405 C113.169423,22.965 113.544423,22.61875 113.964423,22.36625 C114.384423,22.11375 114.839423,21.9875 115.329423,21.9875 C115.989423,21.9875 116.479423,22.18625 116.799423,22.58375 C117.119423,22.98125 117.279423,23.53 117.279423,24.23 L117.279423,24.23 L117.279423,29 L117.991923,29 L117.991923,24.23 C117.991923,23.795 117.939423,23.405 117.834423,23.06 C117.729423,22.715 117.574423,22.42 117.369423,22.175 C117.164423,21.93 116.905673,21.7425 116.593173,21.6125 C116.280673,21.4825 115.919423,21.4175 115.509423,21.4175 C114.954423,21.4175 114.450673,21.54875 113.998173,21.81125 C113.545673,22.07375 113.149423,22.42 112.809423,22.85 L112.809423,22.85 L112.741923,21.725 C112.721923,21.6 112.646923,21.5375 112.516923,21.5375 L112.516923,21.5375 L112.126923,21.5375 L112.126923,29 L112.839423,29 Z M123.315192,29.0975 C123.850192,29.0975 124.328942,29.0075 124.751442,28.8275 C125.173942,28.6475 125.530192,28.39 125.820192,28.055 C126.110192,27.72 126.331442,27.3175 126.483942,26.8475 C126.636442,26.3775 126.712692,25.85 126.712692,25.265 C126.712692,24.68 126.636442,24.15125 126.483942,23.67875 C126.331442,23.20625 126.110192,22.8025 125.820192,22.4675 C125.530192,22.1325 125.173942,21.87375 124.751442,21.69125 C124.328942,21.50875 123.850192,21.4175 123.315192,21.4175 C122.780192,21.4175 122.301442,21.50875 121.878942,21.69125 C121.456442,21.87375 121.098942,22.1325 120.806442,22.4675 C120.513942,22.8025 120.291442,23.20625 120.138942,23.67875 C119.986442,24.15125 119.910192,24.68 119.910192,25.265 C119.910192,25.85 119.986442,26.3775 120.138942,26.8475 C120.291442,27.3175 120.513942,27.72 120.806442,28.055 C121.098942,28.39 121.456442,28.6475 121.878942,28.8275 C122.301442,29.0075 122.780192,29.0975 123.315192,29.0975 Z M123.315192,28.535 C122.870192,28.535 122.481442,28.45875 122.148942,28.30625 C121.816442,28.15375 121.538942,27.935 121.316442,27.65 C121.093942,27.365 120.926442,27.02125 120.813942,26.61875 C120.701442,26.21625 120.645192,25.765 120.645192,25.265 C120.645192,24.77 120.701442,24.32 120.813942,23.915 C120.926442,23.51 121.093942,23.16375 121.316442,22.87625 C121.538942,22.58875 121.816442,22.3675 122.148942,22.2125 C122.481442,22.0575 122.870192,21.98 123.315192,21.98 C123.760192,21.98 124.148942,22.0575 124.481442,22.2125 C124.813942,22.3675 125.091442,22.58875 125.313942,22.87625 C125.536442,23.16375 125.702692,23.51 125.812692,23.915 C125.922692,24.32 125.977692,24.77 125.977692,25.265 C125.977692,25.765 125.922692,26.21625 125.812692,26.61875 C125.702692,27.02125 125.536442,27.365 125.313942,27.65 C125.091442,27.935 124.813942,28.15375 124.481442,28.30625 C124.148942,28.45875 123.760192,28.535 123.315192,28.535 Z" id="TOP10BestCasino" fill="#FFFFFF"></path>
            <g id="playing-card-3-2" fill="url(#linearGradient-1)">
                <g id="playing-card-3">
                    <path d="M21.2279354,10.219375 C21.0540092,10.0379959 20.7973558,9.96086431 20.5518202,10.0161832 C20.3062845,10.0715021 20.1078717,10.2511597 20.0291312,10.4894643 L18.7222,14.4455357 C18.6394302,14.6960856 18.7019434,14.9717062 18.8847937,15.1624107 L21.7720646,18.1734821 C21.9459908,18.3548612 22.2026442,18.4319928 22.4481798,18.3766739 C22.6937155,18.321355 22.8921283,18.1416975 22.9708688,17.9033929 L24.2778,13.9473214 C24.3605466,13.6967552 24.2979984,13.4211324 24.1151167,13.2304464 L21.2279354,10.219375 Z M21.9830333,16.3258036 L20.2182417,14.4852679 L21.0170563,12.0670536 L22.7818479,13.9075893 L21.9830333,16.3258036 Z M40.85,4.28571429 L28.8039979,4.28571429 L28.2171375,1.69866071 C28.0914241,1.14422555 27.7498417,0.662288333 27.267558,0.358902788 C26.7852744,0.0555172434 26.2018093,-0.0444562656 25.6455583,0.0809821429 L11.6650938,3.23107143 C11.066368,3.36583824 10.5542402,3.74976312 10.2582771,4.28571429 L2.15,4.28571429 C0.963160797,4.28709192 0.00138222825,5.24567521 0,6.42857143 L0,27.8571429 C0.00138222825,29.0400391 0.963160797,29.9986224 2.15,30 L16.4833333,30 C17.6045812,29.9985636 18.5368952,29.1394296 18.6260771,28.0254464 L24.3666667,26.7321429 L24.3666667,27.8571429 C24.3680489,29.0400391 25.3298275,29.9986224 26.5166667,30 L40.85,30 C42.0368392,29.9986224 42.9986178,29.0400391 43,27.8571429 L43,6.42857143 C42.9986178,5.24567521 42.0368392,4.28709192 40.85,4.28571429 Z M2.15,28.5714287 C1.75438012,28.5709857 1.43377766,28.2514484 1.43333333,27.8571429 L1.43333333,6.42857143 C1.43377766,6.0342659 1.75438012,5.71472856 2.15,5.71428571 L10.0261667,5.71428571 C10.0310937,5.740625 10.0360208,5.766875 10.0420229,5.79321429 L11.6455646,12.86375 C11.5860812,12.8598214 11.5264187,12.8571429 11.4663979,12.8571429 C10.6272245,12.8647959 9.8366889,13.2508714 9.31639792,13.9071429 C8.79616583,13.2509442 8.00574555,12.8648767 7.16666667,12.8571429 C5.58596875,12.8571429 4.3,14.245625 4.3,15.9524107 C4.3,19.3655357 8.84742917,21.2932143 9.04101875,21.3736607 C9.21744296,21.446875 9.41589037,21.446875 9.59231458,21.3736607 C9.69927708,21.3290179 11.6686771,20.4963393 13.0340167,18.9844643 L14.7827729,26.6941964 C15.0045463,27.6693862 15.8728115,28.3625943 16.8760667,28.3654464 C16.9137812,28.3654464 16.951675,28.3642857 16.9895687,28.3622321 C16.8554338,28.4962621 16.6732706,28.5714287 16.4833333,28.5714287 L2.15,28.5714287 Z M11.9956563,14.4064286 L12.6100188,17.115 C11.8843938,18.5720536 10.0249125,19.5841964 9.31854792,19.9269643 C8.43731667,19.4941964 5.73333333,17.9984821 5.73333333,15.9524107 C5.73333333,15.0333929 6.3763625,14.2857142 7.16666667,14.2857142 C7.95697083,14.2857142 8.6,15.0333929 8.6,15.9524107 C8.6,16.3468998 8.9208626,16.6666964 9.31666667,16.6666964 C9.71247074,16.6666964 10.0333333,16.3468998 10.0333333,15.9524107 C10.0333333,15.0333929 10.6763625,14.2857142 11.4666667,14.2857142 C11.6223504,14.2857142 11.7766476,14.3148733 11.9214813,14.3717857 C11.9466542,14.3816964 11.9709313,14.3948214 11.9956563,14.4064286 Z M17.03875,26.9184821 C16.8532687,26.9603795 16.6586846,26.9270779 16.4978512,26.8259113 C16.3370178,26.7247447 16.223126,26.5640104 16.1812583,26.3791071 L11.4397917,5.478125 C11.3531812,5.09350872 11.595269,4.71159306 11.9809646,4.624375 L25.9615187,1.474375 C26.146987,1.43250426 26.341548,1.46581883 26.5023609,1.56698311 C26.6631738,1.66814738 26.7770521,1.828866 26.8189208,2.01375 L27.3345625,4.28571429 L26.5166667,4.28571429 C25.3298275,4.28709192 24.3680489,5.24567521 24.3666667,6.42857143 L24.3666667,25.2678571 L17.03875,26.9184821 Z M41.5666667,27.8571429 C41.5662223,28.2514484 41.2456199,28.5709857 40.85,28.5714286 L26.5166667,28.5714286 C26.1210468,28.5709857 25.8004443,28.2514484 25.8,27.8571429 L25.8,6.42857143 C25.8004443,6.0342659 26.1210468,5.71472856 26.5166667,5.71428571 L40.85,5.71428571 C41.2456199,5.71472856 41.5662223,6.0342659 41.5666667,6.42857143 L41.5666667,27.8571429 Z M39.4166667,7.14285714 L27.95,7.14285714 C27.5541959,7.14285714 27.2333333,7.46265375 27.2333333,7.85714286 L27.2333333,26.4285714 C27.2333333,26.8230605 27.5541959,27.1428571 27.95,27.1428571 L39.4166667,27.1428571 C39.8124707,27.1428571 40.1333333,26.8230605 40.1333333,26.4285714 L40.1333333,7.85714286 C40.1333333,7.46265375 39.8124707,7.14285714 39.4166667,7.14285714 Z M33.2635458,8.57142857 L34.1031208,8.57142857 L34.8197875,9.28571429 L33.6833333,10.4183929 L32.5468792,9.28571429 L33.2635458,8.57142857 Z M32.6697875,15.7142857 L31.5333333,16.8469643 L30.3968792,15.7142857 L31.5333333,14.5816071 L32.6697875,15.7142857 Z M32.5468792,13.5714286 L33.6833333,12.43875 L34.8197875,13.5714286 L33.6833333,14.7041071 L32.5468792,13.5714286 Z M33.6833333,16.7244643 L34.8197875,17.8571429 L33.6833333,18.9898214 L32.5468792,17.8571429 L33.6833333,16.7244643 Z M30.5197875,17.8571429 L29.3833333,18.9898214 L28.6666667,18.2755357 L28.6666667,17.43875 L29.3833333,16.7244643 L30.5197875,17.8571429 Z M31.5333333,18.8673214 L32.6697875,20 L31.5333333,21.1326786 L30.3968792,20 L31.5333333,18.8673214 Z M30.5197875,22.1428571 L29.3833333,23.2755357 L28.6666667,22.56125 L28.6666667,21.7244643 L29.3833333,21.0101786 L30.5197875,22.1428571 Z M31.5333333,23.1530357 L32.6697875,24.2857143 L31.5333333,25.4183929 L30.3968792,24.2857143 L31.5333333,23.1530357 Z M32.5468792,22.1428571 L33.6833333,21.0101786 L34.8197875,22.1428571 L33.6833333,23.2755357 L32.5468792,22.1428571 Z M35.8333333,23.1530357 L36.9697875,24.2857143 L35.8333333,25.4183929 L34.6968792,24.2857143 L35.8333333,23.1530357 Z M36.8468792,22.1428571 L37.9833333,21.0101786 L38.7,21.7244643 L38.7,22.56125 L37.9833333,23.2755357 L36.8468792,22.1428571 Z M35.8333333,21.1326786 L34.6968792,20 L35.8333333,18.8673214 L36.9697875,20 L35.8333333,21.1326786 Z M36.8468792,17.8571429 L37.9833333,16.7244643 L38.7,17.43875 L38.7,18.2755357 L37.9833333,18.9898214 L36.8468792,17.8571429 Z M35.8333333,16.8469643 L34.6968792,15.7142857 L35.8333333,14.5816071 L36.9697875,15.7142857 L35.8333333,16.8469643 Z M36.8468792,13.5714286 L37.9833333,12.43875 L38.7,13.1530357 L38.7,13.9898214 L37.9833333,14.7041071 L36.8468792,13.5714286 Z M35.8333333,12.56125 L34.6968792,11.4285714 L35.8333333,10.2958929 L36.9697875,11.4285714 L35.8333333,12.56125 Z M32.6697875,11.4285714 L31.5333333,12.56125 L30.3968792,11.4285714 L31.5333333,10.2958929 L32.6697875,11.4285714 Z M30.5197875,13.5714286 L29.3833333,14.7041071 L28.6666667,13.9898214 L28.6666667,13.1530357 L29.3833333,12.43875 L30.5197875,13.5714286 Z M29.3833333,25.2958929 L29.8031208,25.7142857 L28.9635458,25.7142857 L29.3833333,25.2958929 Z M33.6833333,25.2958929 L34.1031208,25.7142857 L33.2635458,25.7142857 L33.6833333,25.2958929 Z M37.9833333,25.2958929 L38.4031208,25.7142857 L37.5635458,25.7142857 L37.9833333,25.2958929 Z M38.7,9.70410714 L37.9833333,10.4183929 L36.8468792,9.28571429 L37.5635458,8.57142857 L38.7,8.57142857 L38.7,9.70410714 Z M29.8031208,8.57142857 L30.5197875,9.28571429 L29.3833333,10.4183929 L28.6666667,9.70410714 L28.6666667,8.57142857 L29.8031208,8.57142857 Z" id="Shape"></path>
                </g>
            </g>
        </g>
    </g>
</svg>