<?xml version="1.0" encoding="UTF-8"?>
<svg width="104px" height="104px" viewBox="0 0 104 104" version="1.1" xmlns="http://www.w3.org/2000/svg" xmlns:xlink="http://www.w3.org/1999/xlink">
    <title>next 2</title>
    <g id="Page-1" stroke="none" stroke-width="1" fill="none" fill-rule="evenodd">
        <g id="Landing-Page" transform="translate(-1013.000000, -317.000000)" fill="#FFFFFF" fill-rule="nonzero">
            <g id="next" transform="translate(1013.000000, 317.000000)">
                <path d="M52,0 C23.2817812,0 0,23.2817812 0,52 C0,80.7182188 23.2817812,104 52,104 C80.7182188,104 104,80.7182188 104,52 C104,23.2817812 80.7182188,0 52,0 Z M52,95.3332656 C28.0682188,95.3332656 8.66673438,75.9317813 8.66673438,52 C8.66673438,28.0682187 28.0682188,8.66673438 52,8.66673438 C75.9317813,8.66673438 95.3332656,28.0682188 95.3332656,52 C95.3332656,75.9317813 75.9317813,95.3332656 52,95.3332656 Z" id="Shape"></path>
                <path d="M46.3974063,27.269125 C44.7051719,25.5768906 41.9613594,25.5768906 40.269125,27.269125 C38.5768906,28.9613594 38.5768906,31.7051719 40.269125,33.3974063 L58.8717187,52 L40.269125,70.6025937 C38.5768906,72.2948281 38.5768906,75.0386406 40.269125,76.730875 C41.9613594,78.4231094 44.7051719,78.4231094 46.3974063,76.730875 L68.0641406,55.0641406 C69.756375,53.3719063 69.756375,50.6280938 68.0641406,48.9358594 L46.3974063,27.269125 Z" id="Path"></path>
            </g>
        </g>
    </g>
</svg>